<?xml version="1.0" encoding="UTF-8"?>
<svg id="Layer_2" data-name="Layer 2" xmlns="http://www.w3.org/2000/svg" viewBox="0 0 792 612">
  <defs>
    <style>
      .cls-1 {
        fill: #dea6e0;
      }

      .cls-2 {
        fill: #3e344c;
      }
    </style>
  </defs>
  <g id="Landing_Page_Web" data-name="Landing Page Web">
    <g>
      <rect class="cls-1" x=".04181" width="791.95819" height="611.94955"/>
      <g>
        <path class="cls-2" d="m.04181,0c16.77105.02031,33.5421.04202,50.31315.06008,5.08654.00548,10.17496.10427,15.25929-.01857,15.17456-.36662,27.50727,6.70127,37.7972,19.2025,2.63561,3.20199,4.56462,6.9674,6.33726,10.84835,10.10584,22.12531,25.39931,37.02787,46.02945,44.57328,13.28091,4.85745,23.38541,14.39094,29.78784,28.69327,7.24132,16.17625,17.86135,28.28068,31.50603,37.01575,4.0485,2.59177,8.43108,4.26123,12.81062,5.91236,14.12723,5.32617,24.86652,15.49442,31.74806,30.72893,7.51584,16.63873,18.53481,28.87133,33.07983,36.94111,3.41558,1.89501,7.08652,3.02512,10.64639,4.48764,13.84914,5.68964,24.71463,15.79165,31.59059,30.79914,6.16703,13.46019,14.44802,24.31385,25.50281,32.43246,4.33042,3.18024,9.02445,5.39515,13.89151,7.16574,5.32745,1.93811,10.50598,4.26113,15.19453,7.85608.82657.63382,1.63634,1.29711,2.35481,2.17884-7.55225-5.06802-16.05845-6.25232-24.29903-8.61149-13.71812-3.92737-25.29236-12.23589-33.52586-25.65272-7.35517-11.98561-16.40525-21.32096-27.73123-27.83594-6.17083-3.54958-12.77743-5.2597-19.46898-6.77932-14.82855-3.36749-26.81451-12.09371-35.49307-26.43753-8.83447-14.60153-20.59753-24.5499-34.85003-30.79109-4.71533-2.06484-9.71174-2.84009-14.61245-4.06349-12.34553-3.08189-22.72582-10.16804-30.31519-21.86289-6.46294-9.95904-13.42087-19.06056-22.57087-25.86402-9.55593-7.10527-19.96713-11.02659-31.03867-13.4574-11.94334-2.62221-21.81713-9.8268-28.80862-21.36654-8.43671-13.92511-19.17737-24.40523-32.29523-31.82064-6.86831-3.8826-14.18146-5.91914-21.63586-7.53869-11.50881-2.50041-20.76986-9.28757-27.8038-20.13332C6.47109,22.08056,3.68332,17.32853.04181,13.3864V0Z"/>
        <path class="cls-2" d="m716.92896,611.94955c-1.29554-1.44225-3.04449-1.76224-4.64552-2.25772-9.39073-2.90645-17.12948-8.82591-23.68376-17.00956-2.55004-3.18401-4.49688-6.83589-6.22871-10.65036-10.09907-22.24359-25.4452-37.18358-46.1463-44.76421-13.27982-4.86297-23.37138-14.41406-29.77079-28.72173-7.23791-16.18225-17.88158-28.26623-31.52649-36.99739-4.04865-2.59069-8.43632-4.24742-12.81497-5.90356-14.04717-5.3129-24.79567-15.39258-31.61752-30.56124-6.83424-15.19635-16.72098-26.70028-29.5079-35.03132-4.15761-2.70881-8.68581-4.37146-13.18515-6.10875-14.60839-5.64056-25.89585-16.16445-33.05526-31.91426-6.76672-14.88607-16.31474-26.25934-28.97801-34.25706-3.94299-2.49028-8.23323-3.98375-12.47676-5.58987-5.4532-2.06399-10.56507-4.88932-15.21779-8.88955.16112-.11018.28534-.24637.32897-.21771,6.99713,4.59618,14.75989,6.25048,22.4963,8.21056,14.50663,3.67537,26.61265,12.24242,35.23119,26.3058,8.00148,13.05655,18.06979,22.78085,30.64161,29.18645,5.33175,2.7166,11.0135,3.90324,16.67345,5.22428,14.28105,3.33323,26.09262,11.5393,34.49284,25.33022,8.38778,13.77035,19.14333,23.78455,32.37264,30.44419,5.46453,2.75083,11.28746,3.95176,17.0829,5.31292,13.51314,3.17382,24.57402,11.05865,32.48825,24.16518,9.30961,15.41724,21.6475,26.03509,36.66701,32.71183,5.0953,2.26501,10.50702,3.0897,15.80358,4.4478,11.42739,2.92997,20.85543,9.72191,27.98558,20.47528,4.52951,6.83139,8.90237,13.76661,14.71427,19.27271,11.62995,11.01791,24.69754,18.20437,39.62455,21.02036,11.63655,2.19521,20.91716,9.26145,27.97657,20.19509,2.71822,4.21004,5.3245,8.52273,8.52,12.2803.6524.76708.78714,1.58663.78483,2.58103-.00906,3.90335.02402,7.80682.04144,11.7103h-75.07104Z"/>
        <path class="cls-2" d="m.04181,596.65081c9.73679-1.76615,18.5379-6.27686,26.86371-12.22491,9.0684-6.47861,16.83553-14.55797,22.90399-24.75424,7.8301-13.15617,18.61504-20.83349,32.15253-23.60804,20.74785-4.25229,37.40695-16.24907,49.59392-36.18084,6.30958-10.31934,14.60316-17.39334,24.5794-22.02897,4.87956-2.26735,10.18837-2.60432,15.23196-4.13817,17.10299-5.20131,31.173-15.76845,41.36575-32.62733,6.74716-11.1599,15.62714-18.88135,26.3654-23.97918,4.48603-2.1297,9.31304-2.711,13.99929-3.93437,16.45379-4.29536,30.12073-13.92302,40.03984-29.76561,6.57561-10.50248,14.40985-18.92074,24.39772-24.73334,5.66614-3.29752,11.74498-4.82585,17.89582-6.23002,16.56607-3.78191,29.90475-13.58727,39.95714-29.3025,3.48882-5.45413,7.00377-10.84651,11.64783-15.08584.80766-.73726,1.62376-1.46212,2.45493-2.20977.35206.44742-.04071.58013-.16467.71474-5.08065,5.51672-8.82563,12.13662-12.10766,19.19912-7.81596,16.81899-19.48396,28.50203-35.26535,34.19931-15.00538,5.41707-26.95529,15.53355-36.04978,30.25242-1.91166,3.09396-3.4322,6.52387-5.03002,9.86513-7.43727,15.55193-18.35093,26.31388-33.03371,31.52205-14.64806,5.19588-26.37575,15.07907-35.89643,28.74507-2.68632,3.85597-4.74707,8.1946-6.7564,12.55404-7.01465,15.21908-17.60716,25.41458-31.83907,30.51881-16.65831,5.97449-29.66753,17.66897-39.64009,34.0807-2.25939,3.71829-3.89489,7.87417-5.89521,11.77432-5.93809,11.57811-14.2861,19.99235-25.27722,24.40186-8.94072,3.58698-17.68889,7.42544-25.31374,14.13148-7.77786,6.84062-14.8008,14.49244-20.04646,24.14286-25.17245,0-50.34494-.01978-75.51724.05042-1.47096.00409-1.6922-.42918-1.65413-1.99451.10817-4.44844.03794-8.90271.03794-13.35465Z"/>
        <path class="cls-2" d="m.04181,480.9541c3.91883-2.24998,7.33351-5.37298,10.40218-8.88316,7.53554-8.61975,16.4824-13.92054,26.83438-16.16518,3.60706-.78214,7.25209-.65427,10.89555-.53572,19.82362.64514,37.50289-6.23245,52.32385-21.46623,8.19858-8.42699,17.1067-14.56048,27.80921-17.19051,4.00534-.98427,8.05596-.97785,12.11205-.82833,20.36334.7506,38.09014-6.7777,53.03643-22.84143,8.90143-9.56688,19.50961-14.66962,31.38452-16.49071,4.43608-.6803,8.93001-.00715,13.39152-.17187,16.38038-.6047,30.91195-6.88491,43.32582-19.38774,4.77907-4.81333,9.49823-9.64321,15.29948-12.85126,9.87521-5.46098,20.1667-7.84318,31.15522-7.39165,16.94718.69638,31.8502-5.82363,44.58614-18.80072,4.55493-4.64117,9.11158-9.23186,14.62027-12.33014.78812-.44327,1.59244-.84783,2.53101-1.00654-.52433.41856-1.03389.86495-1.57529,1.25141-5.94224,4.24196-10.5335,10.14216-15.03796,16.19672-8.98079,12.07131-20.39965,19.43209-33.75884,22.79596-5.03443,1.2677-10.26372,1.15547-15.29115,2.55582-14.01993,3.9051-26.2369,11.55658-35.51945,24.48-7.07321,9.84747-15.39193,17.39772-25.63354,22.19698-5.6256,2.63615-11.53063,3.4314-17.47572,4.29136-18.39929,2.66148-33.75547,12.13956-45.61229,28.65969-7.6114,10.60501-17.00993,17.69486-28.32988,21.51741-4.64226,1.56761-9.5249,1.49332-14.25812,2.44333-17.55453,3.52355-32.51822,12.71152-44.06115,28.51128-6.37851,8.73078-13.73687,15.47551-22.89867,19.69623-5.07084,2.33609-10.4081,2.7913-15.71535,3.61202-19.68584,3.04418-36.26464,13.07855-49.13217,30.59485-6.38359,8.68981-13.77089,15.2269-23.02923,18.96877-.77494.31328-1.58504.50966-2.37882.76026,0-24.06366,0-48.12726,0-72.19092Z"/>
        <path class="cls-2" d="m.04181,72.66901c4.35976,2.51935,8.63291,5.23115,13.18554,7.30359,7.11028,3.2367,14.52794,4.68323,22.07206,5.60631,12.16599,1.4886,22.29791,7.69298,30.29638,18.35125,5.30057,7.06324,10.79843,13.78998,17.65117,18.8925,11.05454,8.23116,22.94855,13.5193,36.14638,14.82262,14.60354,1.44214,26.29452,9.29578,35.61512,22.2968,11.10303,15.48726,25.40244,24.81852,42.36385,28.73629,5.31837,1.22844,10.85352,1.01037,16.08543,2.80503,10.97906,3.76608,20.65843,10.0694,27.90313,20.58727,8.53279,12.38791,19.43945,20.7162,32.16691,26.10647,6.13647,2.59888,12.59363,3.1349,18.98435,4.1899,14.31086,2.36249,26.49936,9.71267,35.73392,22.56916,8.46743,11.7885,18.66013,20.31143,31.016,25.55476,6.07557,2.57829,12.45091,3.1911,18.79319,4.06592,5.07985.7007,9.94716,2.27893,14.53719,5.01961-2.38884-.60724-4.76422-1.30108-7.16938-1.80333-4.69272-.97987-9.43353-.89014-14.18226-.7651-15.71161.41374-29.84017-4.93852-41.4452-17.23393-10.47124-11.09416-22.36723-18.29515-36.21495-21.37878-4.68809-1.04397-9.4291-1.06618-14.17227-.8801-15.93761.6253-29.89876-5.07295-41.635-17.65269-12.4532-13.34823-27.20468-20.39989-44.0106-21.86258-3.14299-.27355-6.32029-.04053-9.48149-.00623-13.41022.14546-25.47193-4.51059-35.32124-15.03063-10.27282-10.97239-21.96219-18.42561-35.42865-22.38078-7.00054-2.05611-14.10711-2.44545-21.27905-2.16561-13.03465.50862-24.65075-4.04676-34.17503-14.32315-12.1175-13.07439-26.28269-20.94602-42.44403-24.25886-5.14826-1.05531-10.36341-1.38675-15.59145-.7118v-66.4539Z"/>
        <path class="cls-2" d="m.04181,177.84784c12.58833-2.57295,24.19067.4204,34.74923,8.61809,4.84483,3.76154,9.2157,8.3445,14.44377,11.45342,14.62698,8.69814,30.02958,12.3559,46.47717,10.01638,13.52195-1.92339,25.89511,2.03129,36.53249,11.82617,10.83929,9.9808,22.99097,16.03043,36.55388,18.59413,6.43719,1.21676,12.87181.89348,19.31481.08043,14.69202-1.85395,28.07177,2.25404,39.62443,12.87747,10.3575,9.52442,21.95659,15.24525,34.90378,17.63734,5.82082,1.07546,11.64664.84818,17.46744.06443,15.99733-2.15404,30.51156,2.33373,43.10951,13.86422,9.94477,9.1021,21.07023,14.45684,33.46844,16.71315,6.74894,1.22825,13.43253.19647,20.13492-.49907,5.09556-.52874,10.13034-.07526,15.08972,1.59408-1.25735-.07301-2.51447-.15249-3.77212-.21792-5.97023-.31048-11.75696.99378-17.52119,2.59863-16.02885,4.46262-31.30613,2.18071-45.49357-7.60869-12.86046-8.87382-26.67662-12.31269-41.47393-11.04546-5.1624.44208-10.0854,2.41888-15.16147,3.40884-13.03808,2.54278-25.5133.50791-37.06715-7.0747-7.58274-4.97645-15.29543-9.29661-23.93838-11.2283-11.18725-2.50035-22.21023-2.22308-33.28408,1.06641-13.80439,4.10061-27.10792,2.07204-39.33365-6.44917-13.1446-9.16162-27.31479-13.05094-42.49878-12.70738-5.53461.12527-10.90482,1.47598-16.25335,2.97709-13.03221,3.6576-25.43499,1.78243-36.9202-6.26238-11.5132-8.06444-23.97849-12.10609-37.3072-12.97925-.61204-.04009-1.22956.0323-1.84453.05229,0-19.12342,0-38.24685,0-57.37027Z"/>
        <path class="cls-2" d="m.04181,369.08207c6.39306-2.04132,12.86865-3.36166,19.53347-2.804,4.89294.4094,9.5309,2.37304,14.33894,3.29262,18.44093,3.5269,35.91754.31196,52.01939-10.84394,9.87161-6.83942,20.42339-9.54984,31.75522-8.7096,5.02814.37286,9.7903,2.49241,14.74493,3.38278,16.9374,3.04371,32.99064.09691,47.93671-9.82325,5.51255-3.65883,11.09945-6.95203,17.39717-8.45585,9.10177-2.17333,18.06921-2.08164,27.14393.57172,18.23847,5.33274,35.63808,2.48865,51.8388-8.63303,11.74078-8.0599,24.31091-11.07365,37.77809-9.48546,4.5902.54135,8.97581,2.38783,13.51936,3.21818,15.4781,2.82871,30.10102-.0213,43.69092-9.2365,4.94123-3.35063,9.99283-6.37499,15.58785-7.99524.65381-.18929,1.28295-.59192,2.29809-.23356-1.13537.5508-2.0392,1.00613-2.95381,1.43026-5.35142,2.48141-10.05642,6.18605-14.56591,10.27493-12.07576,10.94943-25.80459,16.01391-41.09433,15.1707-5.1407-.28348-10.25367-1.39055-15.42148-.95868-13.31342,1.11263-25.75016,5.42264-36.29876,15.13682-8.82334,8.12544-18.50379,13.5981-29.60893,15.77933-5.21146,1.02361-10.40329.81188-15.61068.14441-19.38854-2.48506-36.83236,3.22393-52.10615,17.19737-8.71116,7.96953-18.52454,12.26332-29.4053,13.72421-4.96842.66711-9.87051-.4508-14.80131-.79729-18.43524-1.29527-35.18706,4.28471-49.78311,17.37501-7.81752,7.01103-16.28145,11.68316-25.98959,13.57598-5.38272,1.04949-10.69271.18938-16.02127-.3656-15.91799-1.65783-30.66605,2.81695-44.65496,11.33644-.42514.25889-.84496.52953-1.26727.79469,0-21.3545,0-42.70897,0-64.06347Z"/>
        <path class="cls-2" d="m.04181,272.0307c3.50692-.00674,7.00617.15664,10.4906.64193,4.90185.68267,9.46975,2.55465,13.88345,5.07175,19.225,10.96378,39.04136,12.79722,59.42048,4.92305,13.80239-5.33306,27.13172-4.15675,40.19675,3.22582,17.93821,10.13624,36.48257,11.74088,55.45988,4.44453,15.05213-5.78719,29.54621-4.55404,43.78985,3.50756,17.55198,9.93408,35.57695,10.65786,54.06924,3.49378,14.60368-5.65757,29.10693-4.50578,42.88238,3.37374,12.27757,7.0227,25.04609,9.73527,38.57605,8.22363,5.02919-.56189,9.82075-2.30108,14.58026-4.14943,5.7823-2.24555,11.71316-3.40093,17.82579-3.42451-.21656.52296-.64216.59025-1.03276.63805-7.22655.88369-13.79924,4.03408-20.26974,7.65156-12.32097,6.88833-25.25981,8.33723-38.59335,5.32562-5.3951-1.21859-10.43423-4.05693-15.85931-5.16597-13.73469-2.80776-27.11662-1.52069-39.91981,5.21173-6.26091,3.29227-12.42251,6.76554-19.36752,7.84412-9.25337,1.43709-18.34947,1.27184-27.2617-2.41106-15.67843-6.47899-31.40031-6.11751-47.11076-.14289-3.33454,1.26811-6.45599,3.14736-9.63248,4.86189-12.56941,6.78456-25.57305,8.1398-38.70206,2.95392-16.84781-6.65477-33.55816-6.63344-50.35221-.16653-3.13261,1.20624-6.09614,2.90689-9.06669,4.56711-12.07208,6.74704-24.54101,8.01082-37.23154,2.94444-12.01826-4.79801-24.23675-6.09652-36.77479-4.16122v-59.28261Z"/>
        <path class="cls-2" d="m611.74702,611.94955c-5.15739-8.14473-11.65286-14.54455-19.10617-19.69903-4.00847-2.77222-8.21225-5.21838-11.65719-8.96019-7.51741-8.16527-13.15615-17.6709-15.79305-29.39759-3.87433-17.22981-12.28684-31.12902-23.73774-42.71664-3.16866-3.20642-6.72563-5.80046-10.39634-8.15885-13.87829-8.91672-22.8077-22.28012-27.17336-39.93891-5.26917-21.31365-16.33836-37.39476-32.98577-48.3385-13.99551-9.2004-23.41504-22.75943-27.76479-40.68259-4.09669-16.88044-12.05759-30.55908-23.86893-41.33736-2.54123-2.31894-5.37-4.15395-8.17958-6.00251-4.44046-2.92156-8.61577-6.25261-12.23714-10.46483-.7062-.82142-1.51598-1.52326-2.278-2.28027.13746-.1595.27489-.31903.41233-.47855,1.90147,1.63388,3.76563,3.33037,5.71231,4.88841,3.86945,3.09691,8.1793,5.1965,12.49567,7.28552,15.21144,7.36198,26.40349,19.62827,32.90677,37.22569,5.8969,15.9566,15.37453,28.11577,28.00134,37.15286,3.63718,2.60315,7.67012,4.27552,11.56591,6.26697,13.31788,6.80805,23.35467,17.69068,29.0841,33.21997,5.60068,15.18044,14.16524,27.33664,25.60381,36.94568,4.54003,3.81386,9.57768,6.53495,14.74746,8.96562,13.71702,6.44931,23.51942,17.53475,29.44496,33.27428,8.22791,21.85485,21.87555,37.41224,40.95805,46.26067,9.30125,4.31287,16.7313,11.12115,22.7866,20.17997,2.2066,3.30102,3.74508,7.03811,5.1876,10.83548,2.10685,5.54619,4.38122,10.98908,7.41847,15.95471h-51.1473Z"/>
        <path class="cls-2" d="m121.31041,611.94955c2.32444-2.20105,5.08443-3.46548,7.829-4.68871,16.23579-7.23606,28.72357-19.69658,38.06642-36.54904,2.1598-3.89583,3.7428-8.14864,5.36938-12.36737,5.58563-14.48718,14.63198-25.04032,27.35849-30.82672,13.31436-6.05363,24.10621-15.71146,32.86823-28.63909,3.55118-5.23945,6.20588-11.07846,8.47018-17.16865,6.12731-16.48056,16.40306-28.0074,30.74516-34.7151,17.80225-8.32597,30.67293-22.58099,38.36068-43.01857,6.61992-17.5988,17.65376-29.88834,32.98695-37.06605,16.87757-7.90064,28.97836-21.50568,36.22543-40.8769,2.2248-5.9468,4.87066-11.60128,8.50575-16.57151.41928-.57327.72395-1.31602,1.91572-1.77257-5.87303,8.76553-7.48007,19.10157-10.71771,28.67545-4.92663,14.5681-12.96469,26.58452-24.8564,34.27151-12.11864,7.83373-21.64833,18.39045-28.52452,32.27816-2.6548,5.36198-4.35486,11.15748-5.83698,17.05628-4.39489,17.49159-13.30499,30.88359-27.01642,39.8924-17.22263,11.31587-28.60261,27.98324-34.04335,50.03861-4.11219,16.66991-12.56687,29.33357-25.58813,37.90346-18.10184,11.91368-29.94889,29.54244-35.65469,52.70999-.96038,3.89939-2.40662,7.58173-3.45456,11.43443h-73.00865Z"/>
        <path class="cls-2" d="m221.95509,611.94955c.95162-9.41359,3.65566-18.04166,8.23826-25.94443,4.01426-6.92273,8.97334-12.60099,14.9837-17.17776,13.83121-10.53218,23.08579-25.21849,28.65339-43.1397,1.28207-4.12676,1.88838-8.47341,2.74991-12.73743,3.23973-16.03431,10.52726-29.08487,22.37913-38.18256,11.69964-8.98082,20.35252-20.7444,26.33698-35.32038,2.59423-6.31864,3.74624-13.12337,5.12816-19.86492,3.43313-16.74785,11.15486-30.34557,23.4605-39.90897,10.68743-8.30583,18.88908-18.83752,24.63704-32.08595,2.58965-5.96875,4.03798-12.33842,5.17947-18.83264,1.19939-6.8234,3.01889-13.38056,6.48946-19.24388-.21943.64966-.44762,1.29559-.65595,1.94996-.23771.74675-.44347,1.50735-.6878,2.25101-2.58662,7.87236-2.505,16.25144-3.53451,24.42762-2.04223,16.21864-7.87566,30.44291-18.55256,41.30135-10.21367,10.38733-17.48315,22.75234-21.75732,37.60813-1.91053,6.64035-2.41742,13.5391-2.96585,20.44545-1.38474,17.43874-7.61771,32.15452-19.01851,43.65563-11.72071,11.82386-19.03324,26.59579-22.84453,43.87083-1.18003,5.34852-1.34219,10.8667-1.83085,16.32996-1.41429,15.81184-7.1262,29.17472-17.42184,39.68361-7.80197,7.96358-14.13888,17.12319-18.53886,28.05029-.36542.9075-1.01289,1.73324-.82951,2.86478h-39.59791Z"/>
        <path class="cls-2" d="m522.23924,611.94955c-3.34514-7.14094-4.78277-14.85689-5.25542-22.89617-1.38637-23.58044-9.80799-43.15528-25.12019-58.72813-9.45659-9.61762-15.14745-21.74904-17.59447-35.88583-1.02299-5.91036-.91675-12.07916-1.88576-18.00702-2.74798-16.80942-9.04456-31.6594-20.10811-43.16094-8.30591-8.63469-14.93562-18.36416-18.97551-30.47031-2.39108-7.16551-3.17485-14.62281-3.75853-22.17729-1.51361-19.58931-8.5883-36.03144-21.13014-49.25875-4.84657-5.11141-9.50037-10.36971-12.72285-17.08677.34846-.43767.50721-.00117.62103.17152,4.23236,6.42285,9.65006,11.27023,15.36257,15.77259,11.5646,9.11456,19.29,21.62298,23.58402,36.93932,1.50289,5.36066,2.08349,11.07032,3.60576,16.4217,4.89511,17.20787,13.72819,31.10556,26.90313,41.02864,8.71582,6.56457,15.05707,15.45042,19.93279,25.93903,2.91358,6.26764,4.10097,13.12815,5.49061,19.95088,3.98042,19.54294,13.0769,35.22073,26.94779,47.17439,4.4068,3.79772,9.15931,7.07359,12.82111,11.94584,6.764,8.99988,11.46007,19.11321,13.43611,30.98446,3.43326,20.62532,12.72298,37.23523,26.65575,50.48518.25795.24529.45971.57.6877.85766h-49.49739Z"/>
        <path class="cls-2" d="m287.53913,611.94955c1.2246-3.81558,3.54491-6.75646,5.84813-9.68555,3.51729-4.47306,7.28503-8.70481,10.15297-13.80519,8.34297-14.83711,13.21159-30.9596,12.7623-48.83961-.31465-12.52039,2.73597-23.88286,7.94917-34.63308,2.27784-4.69711,5.36959-8.6555,8.59384-12.47896,10.71436-12.70566,16.646-28.08697,18.88739-45.4996.59926-4.65547.41746-9.37951.51024-14.0763.33683-17.04379,5.31436-32.1123,15.50001-44.32528,9.34362-11.20341,15.7467-23.99987,18.91393-39.06996,1.54634-7.35786,1.36752-14.85946,1.48426-22.33921.09134-5.85179.98674-11.52827,2.85475-17.00443-.26339,2.34012-.55716,4.6763-.7844,7.02115-.65905,6.80061.32175,13.50002.90469,20.23337,1.50624,17.39815-1.68179,33.59645-10.68264,47.66706-8.04967,12.58368-12.89939,26.36559-14.37904,41.84232-.65673,6.86915.01609,13.66848.73374,20.47919,1.81272,17.20274-1.46507,33.0231-10.42094,46.91819-10.23373,15.87773-15.09856,33.61172-14.71531,53.31226.08643,4.4419.84009,8.86133,1.16999,13.30277,1.10911,14.9323-2.00469,28.57314-9.42701,40.87509-2.00537,3.32378-4.23996,6.4709-5.84569,10.10574h-40.01039Z"/>
        <path class="cls-2" d="m463.66733,611.94955c2.12513-15.95167-.08479-31.23821-5.26318-46.06873-2.20942-6.32769-5.38442-11.99935-8.90801-17.41814-7.39319-11.36982-10.58254-24.33603-10.82116-38.38609-.08132-4.78547.87385-9.49436,1.20934-14.25474,1.33497-18.94294-2.1929-36.58093-11.82668-51.99117-6.90249-11.04129-11.64808-22.80664-13.19784-36.31805-.82554-7.19743-.00025-14.29104.66257-21.4224,1.76645-19.00568-2.15124-36.35426-11.71439-51.92043-3.83969-6.24998-7.54658-12.54461-9.56474-19.94875-.07875-.28888-.14539-.5822.03638-1.0197.54553,1.19869,1.09308,2.39612,1.63627,3.59623,2.64465,5.84292,6.25346,10.83341,10.17487,15.55929,11.74438,14.15371,17.69145,30.99123,17.57146,50.69963-.13197,21.67134,6.35842,40.30343,19.35768,55.89385,11.13606,13.35579,16.6735,29.28694,16.54077,47.90844-.16092,22.59164,6.56843,42.11962,20.12855,58.29773,8.76758,10.4604,13.89103,22.80145,15.48102,37.14904.64782,5.84528.00161,11.77776.52567,17.65835.36107,4.05141.9033,8.04919,1.79462,11.98564h-33.82321Z"/>
        <path class="cls-2" d="m410.04516,611.94955c.94177-6.35348,1.74092-12.7058,1.73256-19.19433-.01591-12.36305-1.88558-24.21592-6.45056-35.4598-6.72188-16.55663-7.1546-33.41603-1.76376-50.57973,6.54152-20.8273,5.84199-41.36409-2.06997-61.56131-6.84506-17.4737-7.34241-35.22814-1.58891-53.19175,5.42702-16.94435,5.44117-33.96684.5944-51.02595-1.15634-4.06997-2.84747-7.93469-4.2713-11.90405-1.88379-5.25168-3.0232-10.7161-3.21904-16.46072.34574,1.42436.6804,2.85252,1.03915,4.27248,1.53861,6.08949,4.01557,11.66445,6.91785,17.01286,9.31915,17.17358,11.88239,35.60217,8.1107,55.43129-3.76044,19.76988-1.12004,38.59858,8.00946,55.82697,5.63175,10.62777,9.22719,21.78978,10.07948,34.20425.45875,6.68161-.40075,13.16839-1.57418,19.66159-3.89747,21.56713-1.01463,41.8898,9.1004,60.53286,6.01527,11.08689,8.9359,22.9875,9.04512,35.93736.03988,4.72833-.88966,9.325-1.73893,13.92092-.15669.8478-.43443,1.6876-.19164,2.57706h-31.76082Z"/>
        <path class="cls-2" d="m353.12317,611.94955c8.26925-18.33936,10.78095-37.64072,6.89071-57.88314-3.43172-17.85672-1.0641-34.45794,7.4026-49.89044,8.4952-15.48444,11.72811-32.44364,10.49055-50.62347-.36278-5.32929-1.79548-10.46688-2.40722-15.74902-1.82546-15.76215.39742-30.74463,7.68472-44.27664,5.8583-10.87843,9.75316-22.36497,11.05074-35.1179.9242-9.08319.11382-17.93874-1.62746-26.77457-1.32411-6.71931-1.76225-13.52062-.77554-20.40845.09214,1.426.20168,2.85086.27343,4.27826.34765,6.91441,2.04474,13.45439,4.03367,19.9266,5.55783,18.08561,5.20988,36.01069-1.7666,53.45755-6.0472,15.12287-7.54054,30.80407-5.40469,47.09887.85134,6.49509,3.25459,12.48325,4.78592,18.7543,3.68353,15.0847,3.0532,29.95096-2.42646,44.35703-3.11934,8.20076-5.74962,16.4974-6.62143,25.4922-1.30214,13.43454-.5345,26.56719,3.7582,39.24194,4.32337,12.76527,4.57135,25.75167,1.81401,38.93958-.66635,3.18693-1.93384,6.12337-2.91947,9.17729h-34.23569Z"/>
        <path class="cls-2" d="m402.50205,306.10156c6.26179-6.77026,9.9309-15.53518,14.27441-23.8182,7.50328-14.30866,18.07732-24.70816,31.93582-29.70337,13.11909-4.72871,24.16809-12.77169,33.28894-24.55356,3.46795-4.47982,6.14317-9.57832,8.56315-14.86755,7.54978-16.50106,18.98377-27.52942,34.37068-33.17368,18.5157-6.79194,32.40955-20.21241,41.4596-40.09048,5.87218-12.89795,14.38563-22.39329,25.69454-28.54619,2.8453-1.54806,5.93506-2.49311,8.91395-3.71053,17.20868-7.03284,30.41418-19.72587,39.78738-37.82622.81277-1.56954,1.54503-3.19576,2.29894-4.80553,6.43072-13.73057,15.98776-23.15677,28.89397-27.76293,17.62524-6.29039,31.4559-18.48569,42.05123-35.80618.6383-1.04349,1.29197-1.40126,2.36193-1.39991,24.60806.03108,49.21612.03443,73.82414-.00519,1.29982-.00209,1.80157.33183,1.75867,1.95795-.10075,3.82062-.1009,7.64977.00297,11.47018.04008,1.47509-.49249,1.85445-1.58531,2.14329-20.12911,5.32041-36.37084,17.53347-48.37455,37.05943-7.91015,12.86713-18.53871,20.47674-31.91913,23.21746-20.82416,4.26542-37.50445,16.34203-49.72503,36.34945-6.26205,10.25224-14.53799,17.24083-24.44145,21.85336-4.87854,2.27218-10.18718,2.60353-15.22937,4.141-17.09257,5.21193-31.18496,15.73648-41.37682,32.60204-6.74305,11.15854-15.61254,18.89346-26.34931,23.99837-4.42115,2.10207-9.1712,2.71096-13.7937,3.89908-16.69062,4.28996-30.49036,14.05226-40.50413,30.15378-6.51108,10.46936-14.39948,18.71311-24.31774,24.47599-5.60476,3.25655-11.62285,4.75378-17.70484,6.13828-16.56756,3.77137-29.91384,13.55894-39.97328,29.26363-3.53338,5.51628-7.09687,10.96302-11.79289,15.25246-.78475.71681-1.59455,1.39679-2.39277,2.09378Z"/>
        <path class="cls-2" d="m791.94758,59.03353v2.33028c-.00005,22.39002-.01329,44.78007.028,67.16998.00297,1.59231-.34022,2.56943-1.57343,3.44241-3.884,2.74934-7.33997,6.17162-10.67192,9.74874-10.12581,10.87084-22.12222,15.45783-35.84155,14.89937-19.89659-.80994-37.63098,6.22398-52.48468,21.5592-8.13673,8.40046-17.02716,14.4127-27.64677,17.04799-4.07267,1.01065-8.19282.96221-12.31821.82899-20.11169-.64947-37.72398,6.64895-52.51837,22.52354-9.06913,9.73125-19.79261,15.04575-31.90251,16.8341-4.43641.65515-8.93087-.01796-13.3923.15694-16.30598.63928-30.93748,6.71087-43.06969,19.43546-8.18985,8.58975-17.23582,14.8964-27.89439,18.19842-6.12343,1.89705-12.33094,2.08316-18.6088,1.92434-16.95753-.42906-31.85146,5.88398-44.59578,18.84945-4.45252,4.52976-8.88258,9.05205-14.25321,12.11012-.91206.51932-1.82816,1.02924-2.82685,1.39209,2.87743-2.49294,5.85997-4.79717,8.52416-7.592,3.88939-4.08016,6.89856-9.09991,10.62872-13.33373,9.9317-11.27274,21.66618-18.69118,35.60233-20.12806,14.8756-1.53373,27.99369-7.5398,39.54519-18.36115,3.32953-3.11905,6.10691-6.8782,8.8708-10.64161,10.2973-14.02132,23.34757-21.85049,39.16877-23.63096,19.01957-2.14043,34.91458-11.58587,47.18284-28.5204,7.74222-10.68707,17.13471-18.01476,28.6052-21.88069,4.6433-1.56494,9.52451-1.49771,14.25819-2.44513,17.55741-3.51398,32.52667-12.69695,44.06679-28.49853,6.37941-8.73517,13.74008-15.47259,22.89586-19.70268,5.06847-2.34168,10.40586-2.80251,15.714-3.61856,19.69176-3.02731,36.26702-13.07128,49.13813-30.58117,6.38581-8.68719,13.76782-15.23123,23.02486-18.97753.70089-.28366,1.38995-.70894,2.34461-.53924Z"/>
        <path class="cls-2" d="m791.82442,539.30628c-5.11907-3.34409-10.11256-6.15599-15.36612-8.32897-6.39548-2.64523-13.0408-3.76883-19.75032-4.60554-12.08603-1.50703-22.18113-7.63145-30.14656-18.20338-5.35733-7.11041-10.88531-13.90959-17.79346-19.06366-11.2362-8.38331-23.36141-13.54779-36.76469-14.90277-13.33022-1.34762-24.55182-8.11036-33.15676-19.94896-7.3879-10.16425-15.91103-18.39013-26.25057-24.16985-7.83829-4.38153-16.04687-6.96507-24.69512-7.86997-15.59079-1.63134-28.30566-9.63011-38.19175-23.61686-9.10584-12.88281-20.8161-21.0608-34.36912-25.9702-5.68044-2.05757-11.66545-2.093-17.47096-3.29734-13.7364-2.84955-25.45593-10.17931-34.38468-22.67554-7.31097-10.23198-16.05402-17.94222-26.50228-23.29576-7.29782-3.7393-15.00583-5.00079-22.81359-5.95083-5.16006-.6279-10.07717-2.30362-14.76138-4.93779,3.4182.84249,6.81478,1.74838,10.28955,2.21984,5.96872.80989,11.96801-.32472,17.92012.38836,12.90233,1.5457,24.78233,6.41984,34.34616,16.77703,10.46895,11.3374,22.51063,18.6126,36.51344,21.70527,4.68766,1.03534,9.42789,1.0611,14.17149.87584,16.01591-.62556,30.02572,5.13796,41.78361,17.8208,11.54143,12.44928,25.28796,19.15937,40.77376,21.45672,4.17297.61905,8.37509.29303,12.56583.24549,13.41083-.15209,25.46741,4.5218,35.31784,15.03518,10.27515,10.96667,21.9627,18.42296,35.42932,22.37609,7.0006,2.055,14.10699,2.44397,21.27858,2.16291,13.03596-.51083,24.64734,4.05915,34.17215,14.32879,12.11992,13.06769,26.28396,20.92193,42.44085,24.2685,4.54602.94164,9.15121,1.16726,13.76299.90088,1.26578-.0731,1.81124.22553,1.80721,1.91663-.05005,21.03302-.03278,42.06628-.03701,63.09948-.00005.30079-.05473.60152-.11853,1.25959Z"/>
        <path class="cls-2" d="m400.09813,311.33234c4.38037.26568,8.7673.43356,13.0944-.51243,3.84606-.84082,7.64172-1.99606,11.49224-2.8035,14.51861-3.04441,28.33608-.72524,41.21736,7.77163,6.48077,4.27487,13.06774,8.08564,20.4355,9.91517,10.78551,2.67823,21.48698,2.95772,32.24833-.30009,15.65736-4.73992,30.47168-2.23175,44.45581,7.29968,17.22444,11.74006,35.54881,14.21998,54.86605,8.6157,13.82603-4.01123,27.10856-1.98798,39.33704,6.53618,13.08042,9.11803,27.19229,12.99042,42.30727,12.66661,5.74569-.12308,11.29794-1.60989,16.85844-3.11815,12.36181-3.35299,24.31613-1.87701,35.23799,5.67198,12.03432,8.31797,24.88056,12.92947,38.8089,13.70904,1.15028.0644,1.51346.50759,1.51109,1.84441-.03228,18.00595-.03082,36.01204-.00181,54.01801.00196,1.21214-.3444,1.65057-1.36925,1.8023-13.09523,1.93881-25.10976-1.3091-35.48249-10.83116-10.07208-9.24604-21.26065-15.36927-33.77427-18.51686-8.513-2.14129-17.02988-2.05319-25.62984-.99037-12.70178,1.5698-24.32876-2.0766-34.61645-10.76845-6.68339-5.64666-13.30479-11.26069-21.15658-14.62424-11.67295-5.00041-23.59152-7.02127-36.03314-5.25241-14.67566,2.08646-28.07163-2.21331-39.61916-12.84484-11.40342-10.49889-24.24236-16.35403-38.59828-18.11362-4.60529-.5644-9.20443-.1766-13.78303.43449-16.0007,2.13566-30.46352-2.42603-43.11817-13.88146-8.11729-7.34809-17.01528-12.40997-26.98802-15.29308-8.78908-2.54091-17.56743-2.1286-26.41447-.94114-4.91354.6595-11.45976.01447-15.28543-1.4934Z"/>
        <path class="cls-2" d="m791.94753,178.85703c0,7.68873.00005,14.9347.00005,22.18067.00005,13.14499-.03776,26.2903.0425,39.43463.01148,1.88398-.51238,2.60195-2.03414,3.04405-8.46089,2.45798-16.89917,3.20443-25.45749.52081-17.07832-5.35521-33.76063-3.54051-50.05442,4.11377-3.2525,1.5279-6.28284,3.59396-9.3086,5.64499-12.22692,8.28803-25.24632,10.48546-38.92431,6.35699-15.06648-4.54759-29.81288-3.31497-44.3898,2.54642-4.23898,1.70452-8.13904,4.2485-11.99626,6.86279-13.0334,8.83349-26.91969,11.21132-41.50834,6.88261-15.55242-4.61473-30.64161-3.20939-45.4145,3.78316-3.5681,1.68897-6.80458,4.15427-10.18784,6.27587-12.85158,8.05891-26.45515,10.36702-40.70121,6.66536-7.40447-1.92396-14.76906-3.68278-22.42135-2.96568-10.33804.96878-20.19159,3.72238-29.14598,10.07709-4.93846,3.50473-10.09552,6.48725-15.76123,8.1182-.65341.18815-1.28278.59495-2.05796.2895.80202-.89405,1.85525-1.05527,2.7737-1.48806,5.40557-2.54721,10.15164-6.31669,14.72137-10.44131,12.03896-10.86638,25.71947-15.85345,40.92915-15.00831,5.14012.28558,10.25239,1.38354,15.42.95139,13.31325-1.11333,25.74771-5.42696,36.2928-15.14373,8.82196-8.129,18.50759-13.59232,29.608-15.77674,5.20865-1.02495,10.40208-.80496,15.60937-.13601,19.30929,2.48059,36.71086-3.16297,51.93449-17.06136,8.77367-8.00992,18.61585-12.39873,29.57185-13.86232,4.96776-.66366,9.86962.45276,14.80002.79863,18.51102,1.2986,35.31135-4.33606,49.94743-17.51239,7.75491-6.98145,16.18851-11.55048,25.81896-13.43575,5.3808-1.05337,10.69145-.19762,16.01948.36735,15.32202,1.6247,29.59063-2.55674,43.19894-10.43234.78669-.45531,1.55359-.95664,2.67532-1.65025Z"/>
        <path class="cls-2" d="m400.62065,310.56608c1.08155-.95042,2.29791-.70875,3.404-.92647,5.7437-1.13064,11.14137-3.4152,16.3444-6.39317,15.55101-8.90075,31.51304-10.13921,47.99767-3.766,17.31286,6.69343,34.28393,5.32468,50.66891-3.92457,14.83144-8.37222,29.89621-9.58161,45.58967-3.5471,18.33801,7.05141,36.34602,5.48436,53.65042-4.4276,10.61552-6.08059,21.66442-7.85526,33.25671-5.95296,4.23807.69548,8.18617,2.68897,12.28804,4.00122,17.35269,5.55156,34.38534,4.37035,50.67933-4.46189,8.9637-4.85882,18.01551-8.05337,27.9522-7.63752,4.73016.19796,9.24833,1.4386,13.67381,3.23881,11.03364,4.48821,22.36003,5.7246,33.9283,4.06516,1.64609-.23615,1.92982.33052,1.92493,2.09101-.05106,18.24292-.05614,36.48627.00655,54.7291.00624,1.82153-.45925,2.28024-1.95912,2.26679-7.79424-.07-15.25253-1.56037-22.3344-5.64549-19.17837-11.06299-39.01867-12.90668-59.4019-5.01759-13.87703,5.37096-27.25926,4.15999-40.39074-3.25465-17.94446-10.1323-36.49153-11.65401-55.46432-4.35807-14.97852,5.75999-29.41787,4.51389-43.59319-3.49796-16.89771-9.55059-34.39561-11.01546-52.2647-4.10545-15.85478,6.13107-31.22629,5.02372-46.22389-3.46449-16.42839-9.29792-33.30772-10.60566-50.63072-3.80934-6.16436,2.41841-12.46037,3.86428-19.10197,3.79822Z"/>
        <path class="cls-2" d="m129.22491.06092c5.38674,0,10.32904,0,15.27134,0,11.27216.00003,22.54431.00685,33.81644-.01109,1.05166-.00167,1.93911.04302,2.70744,1.17014,5.92492,8.69162,13.26068,15.43003,21.63578,20.68791,9.46999,5.94526,16.06738,15.01491,20.96911,25.9104,1.66076,3.69159,2.54221,7.72641,3.58237,11.68704,5.68046,21.62951,16.84363,38.32526,33.86206,49.40717,10.37769,6.75767,17.98759,16.31338,23.44006,28.38047,1.69724,3.75614,2.67995,7.83813,3.70883,11.88701,5.27342,20.75148,15.88849,36.72841,32.11588,47.42435,14.73663,9.71332,24.36748,23.85543,29.03249,42.71171,4.97476,20.10838,15.39737,35.31048,31.11801,45.59737,5.47556,3.58299,10.54279,7.74558,14.5744,13.52179-.38919-.31328-.78787-.61205-1.16493-.94386-.38275-.33677-.73908-.71351-1.11569-1.06008-4.50823-4.14887-9.55535-7.17409-14.87797-9.64251-15.95624-7.39991-27.41273-20.16705-34.30379-38.46742-7.42602-19.72093-19.84684-33.5465-37.04406-41.59263-14.8655-6.95515-25.57828-18.83149-31.98688-35.90283-7.81272-20.81169-20.86051-35.47797-38.97124-43.97179-14.16046-6.64119-24.20288-17.92777-30.33049-34.16434-8.11868-21.51247-21.68252-36.79164-40.44109-45.60252-13.51022-6.34575-23.20485-16.93511-28.82117-32.55378-1.76914-4.91987-3.96132-9.60288-6.7769-14.47252Z"/>
        <path class="cls-2" d="m402.67622,304.20042c3.93798-7.14937,6.29888-14.91937,8.38305-22.89237,4.66367-17.84122,13.805-31.83958,27.8915-40.95685,11.70422-7.57541,20.59858-18.13946,27.24124-31.45973,2.63433-5.28255,4.29497-11.01632,5.75521-16.8389,4.40927-17.5811,13.37297-30.99565,27.15488-40.05515,17.15047-11.27382,28.48678-27.90374,33.90358-49.88281,4.12926-16.75463,12.64176-29.44015,25.73211-38.06311,17.9574-11.829,29.72507-29.34308,35.47373-52.32102.86116-3.4419,1.79039-6.85709,3.11106-10.11588.42018-1.03688.88513-1.58449,1.98601-1.58263,23.44208.03941,46.88425.03019,70.32638.03705.17789.00005.35573.09111.7741.20533-2.44154,2.08076-5.02028,3.3203-7.61413,4.46452-15.2847,6.74253-27.17225,18.40021-36.4796,33.78843-2.93407,4.851-4.98161,10.26087-7.08247,15.6313-5.43296,13.88794-14.1087,24.21438-26.30022,29.82499-13.61208,6.26437-24.82095,15.87933-33.77019,29.19808-3.48884,5.19229-6.1265,10.95186-8.35878,16.97121-6.14548,16.57143-16.44757,28.22079-30.90284,34.83591-14.66845,6.71265-25.88054,18.09497-34.17079,33.49498-1.96833,3.65642-3.33532,7.67689-4.90311,11.57397-6.37564,15.84832-16.4597,27.46345-30.40562,34.01102-10.82574,5.08266-20.0925,12.34009-27.74168,22.51406-3.96675,5.2761-7.12683,11.10595-9.52378,17.5119-2.35735,6.30008-4.93342,12.45593-8.77501,17.77157-.56474.78141-1.13625,1.55626-1.70462,2.33417Z"/>
        <path class="cls-2" d="m401.97583,302.48598c3.53454-9.14695,3.61223-19.01922,4.77635-28.68905,1.95373-16.2283,7.85929-30.43598,18.53292-41.29222,10.2107-10.38529,17.48294-22.74535,21.75022-37.60086,1.86255-6.4838,2.42255-13.21172,2.92607-19.96435,1.33431-17.89509,7.796-32.8417,19.49252-44.62783,11.5573-11.64588,18.64269-26.33878,22.40771-43.35264,1.20043-5.42461,1.34977-11.02351,1.85429-16.56326,1.39896-15.35997,6.83731-28.51492,16.78346-38.78446,8.34236-8.61361,15.20777-18.35185,19.74216-30.2173.39199-1.02578.93236-1.35865,1.89004-1.35587,12.16423.03528,24.32876.04826,36.49289-.00979,1.39302-.00665,1.56804.49025,1.34458,1.93905-2.64642,17.15799-9.92939,30.85608-22.4854,40.62613-17.10365,13.30865-27.67587,31.63938-31.80035,55.04748-2.98724,16.95397-10.71023,30.43021-23.12053,40.00173-13.55358,10.45331-22.90246,24.52192-28.25808,42.24159-1.36523,4.51685-1.89084,9.296-2.95724,13.90595-3.71684,16.0674-11.23293,29.27203-23.19626,38.50025-10.71094,8.26216-18.88707,18.82981-24.63319,32.0755-2.58879,5.96755-4.03722,12.33577-5.1776,18.82873-1.19809,6.82156-3.02269,13.3737-6.36456,19.29124Z"/>
        <path class="cls-2" d="m396.36855,297.71505c-4.84-6.94044-11.08699-11.86442-17.2156-17.02372-13.08886-11.01858-20.96993-25.92669-24.21313-44.29536-3.67741-20.82784-13.30162-37.1985-28.54312-48.93224-9.33544-7.18694-16.07583-16.7526-20.97821-28.25034-2.12017-4.97254-3.15471-10.33691-4.152-15.71377-4.00044-21.56779-13.83131-38.71325-29.6039-50.97607-9.82307-7.63722-16.85932-17.63684-21.36831-30.16387-1.59553-4.4327-2.17838-9.20061-3.12571-13.84599-3.85097-18.88368-12.53605-34.27296-25.21157-46.76857-.41404-.40816-.84573-.79227-1.26435-1.18308.30777-.82074.86345-.48254,1.26853-.48308,15.39447-.02064,30.78899-.00007,46.18336-.05011,1.27313-.00414,1.93128.43018,2.49483,1.79113,2.78372,6.72221,3.98249,13.85334,4.42488,21.22551,1.37608,22.93108,9.34662,42.24791,24.15022,57.52158,12.0338,12.41594,18.42691,27.7352,19.55478,46.30721,1.32731,21.85591,9.25201,40.07734,23.4381,54.54281,10.41656,10.62173,16.67964,23.90485,19.3042,39.5665.98258,5.86348.71262,11.92589,1.77149,17.78381,2.97373,16.45152,9.44473,30.65242,20.39715,41.88568,4.65279,4.7721,8.98746,9.84878,12.23432,16.04969.16986.32439.30352.67423.45404,1.01226Z"/>
        <path class="cls-2" d="m504.51245.44045c-1.7198,3.77794-3.87846,7.07362-6.44351,9.96131-10.88173,12.2505-17.6278,27.11861-20.96967,44.15933-1.11775,5.69966-1.48743,11.50419-1.38592,17.33082.32074,18.4138-5.15396,34.13816-16.25971,47.23415-10.85273,12.79759-16.89836,28.2776-19.1462,45.86478-.65562,5.1295-.33015,10.34164-.53433,15.51056-.64359,16.29315-5.46221,30.82936-15.22635,42.53093-9.44226,11.31577-15.99574,24.18388-19.1714,39.43871-1.53264,7.36247-1.35095,14.86203-1.4759,22.34148-.09733,5.82439-.97193,11.47831-2.7803,16.9393.83412-5.99763,1.19736-12.00601.71612-18.06492-.44067-5.54838-1.46497-11.03918-1.3324-16.64292.35125-14.84516,3.4639-28.76023,11.34683-40.69266,8.13912-12.32016,12.6763-26.1424,14.1446-41.44078.6514-6.78711-.00549-13.51251-.72405-20.24385-1.85555-17.38117,1.50968-33.31064,10.56245-47.34577,10.19922-15.8125,14.94297-33.52681,14.55325-53.13323-.09149-4.60127-.88528-9.17803-1.20959-13.77992-.98528-13.98034,1.89155-26.86234,8.47066-38.61238,2.01914-3.60611,4.2352-7.06347,6.32373-10.61847.41766-.71084.81333-1.13726,1.62675-1.13405,12.85384.0507,25.70769.0647,38.56158.09267.04899.00011.09783.08059.35337.3049Z"/>
        <path class="cls-2" d="m397.82527,298.75911c-1.12847-2.32906-2.21166-4.68955-3.39471-6.98071-2.56062-4.95906-6.00236-9.09025-9.37172-13.29416-11.00275-13.72792-16.83507-29.9196-16.62224-48.71645.20309-17.9389-4.31227-34.02615-13.2388-48.54492-2.11793-3.44479-4.73829-6.40435-7.20938-9.50404-10.40367-13.05024-15.74703-28.43667-15.45744-46.23004.28469-17.49091-4.22478-33.23623-12.3026-47.77733-2.54186-4.57566-5.82064-8.4568-9.01264-12.41537-9.56723-11.86477-14.53424-25.89101-14.5457-42.17171-.00511-7.26784-.25986-14.49428-1.78843-21.57878-.26445-1.22563.02842-1.50396,1.04285-1.50116,10.37754.02869,20.75528.04829,31.13261-.01211,1.72416-.01003,1.2508,1.17992,1.13109,2.19969-1.97131,16.79634.96811,32.62714,7.03282,47.82542,1.7952,4.49872,4.21134,8.58099,6.7637,12.53993,9.54918,14.81176,12.83013,31.33459,10.59591,49.59453-2.51044,20.51717,1.20811,39.59564,11.68446,56.3945,6.81271,10.92419,11.39516,22.60812,12.92524,35.94116.81645,7.11448.00151,14.13192-.65693,21.1846-1.79019,19.1745,2.15582,36.65856,11.86195,52.33866,3.53484,5.71056,6.93703,11.48546,8.96226,18.18371.24262.80239.45283,1.61795.67808,2.4274-.07014.03239-.14025.06478-.21039.09717Z"/>
        <path class="cls-2" d="m399.33601,299.27451c-1.91587-9.14137-6.26401-16.97881-10.21322-25.09529-7.74726-15.92246-9.68478-32.90943-6.26562-50.79464,3.99996-20.92315.97228-40.55284-8.9106-58.61481-6.31648-11.54397-9.10848-24.10304-9.19348-37.61382-.03489-5.54289,1.21153-10.87612,2.06934-16.27522,3.2035-20.16214.56824-39.28735-8.64263-56.77351-5.4248-10.29854-8.98794-21.02356-9.7773-33.05637-.44563-6.79274.69951-13.30984,1.87687-19.862.19471-1.08355.75419-1.13454,1.49231-1.13372,9.62166.01059,19.2434.03037,28.86487-.02074,1.31608-.00699,1.41716.53279,1.19718,1.83773-3.12027,18.50743-1.71142,36.4004,5.19105,53.6483,6.34497,15.85482,6.9723,32.17146,1.72889,48.53893-5.63953,17.6038-6.06535,35.276-1.49189,53.18531,1.05426,4.12827,2.74201,7.98326,4.16846,11.9504,5.68039,15.79767,6.29465,31.8967,1.46885,48.04452-2.97468,9.9537-5.13634,19.93765-4.83323,30.56496.2824,9.9016,1.67323,19.46667,5.29147,28.51583,2.57741,6.44607,4.85359,13.01523,5.68222,20.12806.10956.94036.19813,1.88395.29644,2.82606Z"/>
        <path class="cls-2" d="m438.84211.06245c-2.8236,5.99259-4.75377,11.92359-6.10022,18.11152-3.02768,13.91459-3.17203,27.78557-.4298,41.85758,3.13286,16.07673.99253,31.54305-6.6069,45.45729-7.57705,13.87327-11.53172,28.784-11.9269,45.07643-.16163,6.66273.99945,13.14117,2.12659,19.62905,3.02236,17.39696.75618,33.89634-7.39485,48.87668-6.8294,12.55141-10.48453,26.0127-11.11826,40.71777-.30165,6.99997.80381,13.79591,2.067,20.5793,1.25455,6.73685,1.73455,13.52366.77116,20.42567.1859-10.93227-3.42374-20.8133-6.20271-30.924-.18723-.68121-.32643-1.38392-.44417-2.08649-2.46991-14.73866-2.13366-29.29974,3.47062-43.03333,5.94425-14.56661,7.98361-29.67997,6.44887-45.57009-.53883-5.57873-1.88067-10.92931-3.56243-16.16133-5.76296-17.9289-5.08606-35.4631,1.74155-52.91439,7.88469-20.15319,8.52778-40.86741,1.95308-61.61989-4.12828-13.03038-4.67125-26.06821-1.84163-39.41809.55832-2.63404,1.49594-5.12297,2.41344-7.61561.3258-.88511.6741-1.41423,1.62499-1.41106,10.85635.03616,21.71283.02299,33.01057.02299Z"/>
        <path class="cls-2" d="m399.87298,305.82041c.03336,2.6016-1.64485,4.62737-3.8222,4.6138-2.13218-.01331-3.84793-1.9173-3.87917-4.30475-.03406-2.60321,1.63851-4.62255,3.81938-4.6112,2.13389.01109,3.85137,1.91447,3.88199,4.30216Z"/>
      </g>
    </g>
  </g>
</svg>