<?xml version="1.0" encoding="UTF-8"?>
<svg id="Layer_2" data-name="Layer 2" xmlns="http://www.w3.org/2000/svg" viewBox="0 0 72.84521 72.84515">
  <defs>
    <style>
      .cls-1 {
        fill: none;
      }

      .cls-2 {
        fill: #fff;
      }

      .cls-3 {
        fill: #3e344c;
      }
    </style>
  </defs>
  <g id="Channel_Page_Web" data-name="Channel Page Web">
    <g>
      <circle class="cls-2" cx="36.42261" cy="36.42258" r="36.42257"/>
      <g>
        <path class="cls-1" d="m41.38965,5.2085c2.34204,1.67072,4.4397,3.60657,6.22144,5.85663,1.85303,2.34033,3.39282,4.87769,4.48315,7.67273,1.05469,2.70239,1.63843,5.49939,1.74976,8.3941.04395,1.14117-.09351,2.27118-.23901,3.4032-.27197,2.11505-.91357,4.11871-1.85205,6.01544-1.00244,2.02618-2.43286,3.74329-4.2373,5.11169-2.41187,1.82922-5.05981,2.92426-8.18823,2.55927-2.43042-.28357-4.42749-1.25208-5.74146-3.36487-.63477-1.02081-1.00195-2.12225-.76562-3.38403.23145-1.23584.771-2.20074,1.94897-2.75635-1.66895.25024-2.573,2.44702-2.52222,3.84961.06006,1.65491.8501,3.05566,2.01123,4.23651,1.54736,1.57404,3.43848,2.46497,5.6228,2.64856,2.28198.19183,4.49438-.18042,6.56226-1.19775,2.29321-1.1283,4.18896-2.73834,5.77637-4.74609,2.72949-3.45245,4.06006-7.42157,4.3772-11.74548.15967-2.17456.06006-4.36725-.37793-6.51129-.64185-3.14093-1.7002-6.1358-3.24146-8.96802-1.35498-2.49005-2.9751-4.78839-4.87646-6.86963-1.48438-1.62469-3.04565-3.19031-4.82886-4.5155-.15845-.1178-.3645-.21112-.53735-.34088-2.05127-.35864-4.1582-.55634-6.31201-.55634-1.52295,0-3.02051.10437-4.49414.28589,1.06396.41724,2.13281.82471,3.17236,1.29602,2.21191,1.00275,4.30859,2.21417,6.28857,3.62659Z"/>
        <path class="cls-1" d="m59.45874,17.07935c.45728,2.03931.67896,4.10248.78809,6.17554.09473,1.80096-.09497,3.59729-.34937,5.38757-.3335,2.34595-.95581,4.60437-1.90137,6.77209-1.49243,3.42041-3.71973,6.27856-6.71143,8.51672-2.4646,1.84375-5.22144,3.03302-8.30981,3.2757-2.42847.1908-4.80005-.15057-6.94067-1.40436-2.85498-1.6723-4.73511-3.9942-4.56567-7.4939.07349-1.51709.70044-2.7998,1.99341-3.72443.77832-.55652,1.64282-.5578,2.70728-.54761-.92896-.4184-1.67627-.29846-2.3728.02771-1.79785.8418-2.74072,2.33453-2.95996,4.25525-.31348,2.74414.65186,5.0871,2.57666,6.99524,1.15332,1.14349,2.54199,2.00873,4.07861,2.60291,2.32959.9007,4.72607,1.31085,7.21362.93085,2.53613-.38739,4.93774-1.16998,7.15039-2.50293,2.5686-1.54724,4.729-3.53363,6.52393-5.92322,1.62402-2.1618,2.90063-4.50916,3.86304-7.03998,1.15723-3.0434,1.77783-6.19257,1.90137-9.42926.05859-1.53552.07593-3.07837-.07959-4.62341-.11792-1.16956-.22168-2.34552-.43115-3.49536-.30273-1.66187-.71045-3.2995-1.21143-4.91022-2.53296-2.58234-5.44287-4.79352-8.64746-6.5332.7417,1.06982,1.42896,2.17572,2.04541,3.3255,1.59204,2.96875,2.89697,6.0531,3.63892,9.36279Z"/>
        <path class="cls-1" d="m21.24219,8.28119c2.29248-.03778,4.58472-.0014,6.83691.41785,2.35547.43854,4.64404,1.11853,6.86548,2.06781,3.03784,1.29816,5.72192,3.0946,8.05981,5.388.99365.97479,1.8811,2.0697,2.67505,3.23932,2.68848,3.96057,3.95679,8.28735,3.22974,13.04364-.4707,3.07941-1.81079,5.78271-4.33423,7.78278-2.34058,1.85504-4.93872,2.34747-7.78003,1.46838-1.85132-.57275-3.17627-2.61292-3.08105-4.2085.03857-.64307.29883-1.20026.69238-1.81683-.2832.13196-.35669.28217-.45703.43549-.9895,1.50958-.41333,3.41644.62183,4.62109,2.09839,2.44183,5.48022,2.70612,8.19458,1.72858,2.05322-.73944,3.71753-2.00787,5.07397-3.72034,1.92285-2.42719,2.93335-5.22119,3.21143-8.24786.2168-2.3584-.03613-4.70154-.69824-7.01532-1.08618-3.79688-3.0564-7.05896-5.68848-9.95361-1.06323-1.16907-2.2666-2.19104-3.52222-3.15283-2.21289-1.69519-4.61035-3.05048-7.198-4.10089-2.29004-.92969-4.64355-1.58411-7.07227-2.02399-1.6897-.30609-3.3877-.54047-5.09766-.57263-.4126-.00775-.82544-.01544-1.23828-.02039-3.33862,1.62103-6.38721,3.74188-9.06079,6.25745.81812-.24664,1.64453-.47064,2.48242-.66486,2.39795-.55597,4.81665-.91162,7.28467-.95233Z"/>
        <path class="cls-1" d="m28.59912,65.06885c-1.59302-1.41162-2.9834-2.98419-4.26685-4.6665-1.42798-1.87134-2.552-3.91199-3.46875-6.07605-1.06592-2.5166-1.67944-5.14362-1.84692-7.85858-.09546-1.55011-.03711-3.10693.2168-4.65845.32349-1.97742.90454-3.86969,1.79761-5.64624,1.01123-2.01129,2.40161-3.74567,4.19336-5.14685,2.94653-2.30389,6.198-3.2594,9.88843-2.25623,2.12695.57819,3.75342,1.83667,4.55957,3.90363.72656,1.86243.59692,4.40137-1.95972,5.34418.8479.01483,1.55151-.50909,2.10034-1.43738,1.35181-2.28644.63599-4.63507-.97168-6.38477-1.58594-1.72577-3.49902-2.77936-5.91968-2.96924-1.53589-.12042-3.00122-.00958-4.45825.40753-2.78662.79791-5.07471,2.35156-7.00903,4.50421-1.84351,2.052-3.2085,4.36493-4.09473,6.95795-.9397,2.7489-1.27954,5.58075-1.15259,8.48846.04883,1.12018.10522,2.24042.29492,3.3349.48364,2.79205,1.34937,5.47369,2.58325,8.03235,1.50146,3.11353,3.45654,5.9292,5.7688,8.48199,1.53271,1.69214,3.20752,3.25232,5.06006,4.61267.14673.10779.34326.18842.50391.30725,1.95435.32434,3.9585.50146,6.00488.50146,1.64453,0,3.26074-.11963,4.84766-.33087-2.78613-.95801-5.43628-2.20276-7.91455-3.81012-1.67969-1.08948-3.25488-2.30438-4.75684-3.63531Z"/>
        <path class="cls-1" d="m5.2666,24.66907c1.26196-1.13611,2.56641-2.20685,3.94238-3.1936,2.19824-1.57617,4.5874-2.80841,7.10205-3.78973,2.89502-1.12982,5.91016-1.72925,9.01416-1.85431,1.39258-.05615,2.77783.05518,4.16504.23041,2.09351.26447,4.10571.81488,6.01782,1.66858,2.91089,1.29956,5.41357,3.14948,7.32471,5.74396,1.56714,2.12732,2.5686,4.48651,2.81763,7.11145.1687,1.77899-.05957,3.53699-.73804,5.22327-1.09912,2.7309-3.90356,4.99731-6.91724,4.77032-1.45215-.10938-3.14185-1.21216-3.44702-2.48621-.11475-.47992.0127-.95416-.1084-1.41895-.38574,1.01733.05762,2.55865,1.00366,3.28027,1.43433,1.09412,3.06055,1.46539,4.81885,1.04425,1.79761-.4306,3.22363-1.4502,4.40186-2.86884,2.1875-2.63318,2.63086-5.73871,2.35181-8.97424-.17651-2.04669-.9436-3.95508-1.95483-5.76953-1.32959-2.38501-3.07275-4.39838-5.24756-6.01947-2.23511-1.66614-4.71045-2.89459-7.39771-3.6745-3.17065-.92029-6.38354-1.40558-9.70532-1.15387-1.73315.13135-3.42749.39435-5.12549.75269-3.61255.76251-6.97681,2.14642-10.14453,3.99005-1.09766.63879-2.15918,1.3316-3.19092,2.06635-1.72754,3.24847-2.97241,6.78998-3.65137,10.53003,1.43237-1.84277,2.91943-3.63354,4.66846-5.20837Z"/>
        <path class="cls-1" d="m4.39233,45.40643c.70752-3.8208,1.98584-7.4306,3.93066-10.79523,1.87085-3.23663,4.24463-6.05414,7.20874-8.35156,3.17017-2.45709,6.68848-4.11249,10.70337-4.67554,1.823-.25574,3.61792-.27637,5.43677.00696,2.67358.41644,5.10864,1.34528,7.20605,3.08624,2.68872,2.23157,4.38672,4.9552,4.27319,8.5733-.06714,2.13898-.76831,3.99451-2.56787,5.28473-1.21265.86938-2.53931,1.2124-4.01392.66205-.32544-.12152-.53979-.45398-1.02466-.48987,1.20337,1.18164,2.54321,1.37122,3.96753.90045,2.69897-.89209,4.48389-3.54126,4.64795-6.60059.12134-2.26477-.42529-4.35718-1.59863-6.29932-1.42065-2.3512-3.31543-4.20258-5.74756-5.48975-2.31445-1.22498-4.76904-1.9173-7.39355-2.1626-1.78271-.16663-3.54102-.09607-5.26855.19818-2.83691.48315-5.54541,1.39899-8.09033,2.7981-2.36621,1.30078-4.49561,2.9007-6.46021,4.73108-1.0791,1.00543-2.01123,2.14685-2.93799,3.29309-2.58057,3.19153-4.47632,6.75714-5.90869,10.58746-.14282.38184-.22925.78479-.35156,1.17432.55542,3.7262,1.67578,7.26697,3.27026,10.53467.02295-.461.05542-.92206.07373-1.38147.07397-1.88263.30273-3.73492.64526-5.58472Z"/>
        <path class="cls-1" d="m12.60205,50.414c-.18091-2.63239-.03711-5.2785.51709-7.86389.56689-2.64594,1.44556-5.18909,2.81274-7.56079,1.35547-2.35107,3.11694-4.34003,5.21313-6.01617,2.08936-1.6709,4.4707-2.82025,7.12207-3.32538,1.823-.34729,3.65259-.36761,5.4751.0484,2.28857.52246,4.26855,1.56854,5.77979,3.39911,1.66382,2.01544,2.36035,4.2655,1.47534,6.81586-.48877,1.40826-1.82666,2.85742-3.74951,2.64984-.16455-.01782-.33447.01379-.57227.02612.29028.17181.51953.21094.77319.22949,1.58813.11646,2.7019-.70978,3.5498-1.89252,1.14111-1.59137,1.24829-3.42078.83105-5.26398-.72607-3.2077-2.9021-5.24908-5.74536-6.59247-2.56836-1.21362-5.28516-1.69446-8.15942-1.22858-1.9856.3219-3.88574.85706-5.67383,1.74432-2.93237,1.45483-5.3562,3.53027-7.39307,6.09601-1.98853,2.50476-3.46411,5.26941-4.55029,8.26086-1.24414,3.42694-1.62915,6.99286-1.75122,10.60284-.02124.62311.17456,1.22888.13159,1.85944-.07056,1.0387.1228,2.07001.27515,3.08466.33008,2.20129.83423,4.36664,1.51318,6.48895,2.56714,2.60651,5.52271,4.82806,8.7749,6.57019-1.54883-2.24512-2.8772-4.62201-3.98462-7.13855-1.54639-3.51404-2.40308-7.18927-2.66455-10.99377Z"/>
        <path class="cls-1" d="m67.35742,48.14789c-1.36914,1.19788-2.75977,2.35522-4.26929,3.36609-2.17212,1.45447-4.47241,2.64655-6.93579,3.55817-2.46777.91309-5.00171,1.48773-7.60669,1.66693-1.46826.10101-2.95605.09619-4.44043-.07532-1.49609-.17279-2.96265-.43481-4.40015-.87042-2.38232-.72186-4.5481-1.83929-6.53076-3.362-1.82031-1.39813-3.2627-3.08447-4.35913-5.07867-1.43628-2.61298-1.97925-5.39703-1.51099-8.35388.28174-1.77917.9751-3.3844,2.21045-4.71191,1.14307-1.22833,2.58569-1.98804,4.23242-2.23596,1.93604-.29144,4.15161.82678,4.58545,2.79132.06641.30121.05127.62036.07397.93121.15088-.82196.10571-1.62299-.41724-2.2981-1.13623-1.46759-2.6377-2.10931-4.50146-1.95935-1.60791.12933-2.95068.84045-4.16211,1.82605-2.51636,2.0473-3.44751,4.84882-3.64941,7.95172-.10791,1.65985.20044,3.28247.72168,4.85944.74316,2.24799,1.896,4.25671,3.43555,6.06738,1.70923,2.01038,3.71045,3.62286,6.03076,4.87836,3.40332,1.84143,7.05737,2.77936,10.8877,3.03864,1.23926.08386,2.49414.03967,3.74951-.07611,1.99414-.18396,3.94678-.50891,5.88379-1.01526,3.72559-.974,7.16895-2.55243,10.42725-4.58704.68359-.42694,1.34033-.88727,1.9873-1.35999,1.67041-3.23615,2.86865-6.75293,3.50684-10.46356-1.52197,1.94794-3.07007,3.86774-4.94922,5.51227Z"/>
        <path class="cls-1" d="m48.57397,64.34552c-1.91553-.16718-3.81372-.35419-5.68579-.79358-4.43408-1.04071-8.44263-2.96503-11.88208-5.94403-2.2937-1.98645-4.18726-4.31946-5.47876-7.11652-1.50171-3.25189-2.17505-6.5943-1.64014-10.17737.39795-2.66571,1.46191-5.00177,3.29053-6.93756,1.84766-1.95605,4.13477-3.0318,6.91113-2.86133,1.31982.08112,2.47192.54126,3.47119,1.3938,1.38818,1.18427,1.71338,2.69647,1.35181,4.42737.41968-.56116.54492-1.20758.4519-1.85809-.21948-1.53754-.99756-2.74384-2.30908-3.60107-1.54297-1.0083-3.19629-1.35889-5.04883-1.138-2.11353.25208-3.91382,1.13873-5.45337,2.4986-3.31567,2.92859-4.65649,6.78235-4.90601,11.08447-.06128,1.05554.11401,2.1026.23438,3.15192.23291,2.03558.83057,3.96869,1.67139,5.81586,1.63574,3.59314,4.07104,6.58514,7.08032,9.13086,2.30786,1.95251,4.84692,3.51648,7.6228,4.71704,3.59277,1.55377,7.35596,2.44177,11.23584,2.78809,1.02148.09119,2.04736.14148,3.07739.14557,3.36426-1.66705,6.43115-3.83936,9.10767-6.41663-2.69824.84875-5.46851,1.4007-8.30762,1.62384-1.58569.12463-3.17969.2077-4.79468.06677Z"/>
        <path class="cls-1" d="m68.96875,23.26019c-.15283,1.62183-.33936,3.23755-.70264,4.81793-.76831,3.34149-1.85791,6.56659-3.57617,9.56854-1.0564,1.84521-2.21704,3.61426-3.63623,5.18329-2.55835,2.82892-5.47485,5.19684-9.04346,6.70001-2.15869.90924-4.38574,1.52435-6.70923,1.68896-1.50806.10681-3.03052.07794-4.53979-.21704-3.39233-.66309-6.37061-2.03723-8.60474-4.77039-1.75269-2.14398-2.77319-4.5177-2.47705-7.36047.12622-1.21301.45605-2.3302,1.14819-3.32886,1.44312-2.08221,4.1333-3.31824,6.60986-1.3595-.30371-.54517-.71582-.78864-1.11865-.97559-1.87891-.87189-3.53882-.30469-5.01318.92847-2.40527,2.01154-3.02344,4.72369-2.58447,7.6499.52979,3.53223,2.51392,6.28259,5.31226,8.40808,2.73071,2.07404,5.91211,3.11908,9.29956,3.40991,2.48633.21344,4.98096.0094,7.40869-.6275,4.73901-1.24329,8.82349-3.66724,12.354-7.02362,2.07324-1.97125,3.8313-4.21204,5.34717-6.63995,1.36182-2.18134,2.49512-4.47083,3.41724-6.87366.20703-.53955.34814-1.1059.55029-1.64819-.5791-3.73053-1.72925-7.27051-3.3501-10.53601.00342,1.00067.00269,2.00171-.09155,3.00568Z"/>
        <path class="cls-3" d="m71.86011,32.43872c-.92212,2.40283-2.05542,4.69232-3.41724,6.87366-1.51587,2.42792-3.27393,4.6687-5.34717,6.63995-3.53052,3.35638-7.61499,5.78033-12.354,7.02362-2.42773.6369-4.92236.84094-7.40869.6275-3.38745-.29083-6.56885-1.33588-9.29956-3.40991-2.79834-2.12549-4.78247-4.87585-5.31226-8.40808-.43896-2.92621.1792-5.63837,2.58447-7.6499,1.47437-1.23315,3.13428-1.80035,5.01318-.92847.40283.18695.81494.43042,1.11865.97559-2.47656-1.95874-5.16675-.72272-6.60986,1.3595-.69214.99866-1.02197,2.11584-1.14819,3.32886-.29614,2.84277.72437,5.21649,2.47705,7.36047,2.23413,2.73315,5.2124,4.1073,8.60474,4.77039,1.50928.29498,3.03174.32385,4.53979.21704,2.32349-.16461,4.55054-.77972,6.70923-1.68896,3.5686-1.50317,6.48511-3.87109,9.04346-6.70001,1.41919-1.56903,2.57983-3.33807,3.63623-5.18329,1.71826-3.00195,2.80786-6.22705,3.57617-9.56854.36328-1.58038.5498-3.19611.70264-4.81793.09424-1.00397.09497-2.005.09155-3.00568-1.71606-3.45758-3.96362-6.60309-6.63843-9.33026.50098,1.61072.90869,3.24835,1.21143,4.91022.20947,1.14984.31323,2.32581.43115,3.49536.15552,1.54504.13818,3.08789.07959,4.62341-.12354,3.23669-.74414,6.38586-1.90137,9.42926-.9624,2.53082-2.23901,4.87817-3.86304,7.03998-1.79492,2.38959-3.95532,4.37598-6.52393,5.92322-2.21265,1.33295-4.61426,2.11554-7.15039,2.50293-2.48755.38-4.88403-.03015-7.21362-.93085-1.53662-.59418-2.92529-1.45941-4.07861-2.60291-1.9248-1.90814-2.89014-4.2511-2.57666-6.99524.21924-1.92072,1.16211-3.41345,2.95996-4.25525.69653-.32617,1.44385-.44611,2.3728-.02771-1.06445-.01019-1.92896-.00891-2.70728.54761-1.29297.92462-1.91992,2.20734-1.99341,3.72443-.16943,3.49969,1.71069,5.82159,4.56567,7.4939,2.14062,1.25378,4.51221,1.59515,6.94067,1.40436,3.08838-.24268,5.84521-1.43195,8.30981-3.2757,2.9917-2.23816,5.21899-5.09631,6.71143-8.51672.94556-2.16772,1.56787-4.42615,1.90137-6.77209.25439-1.79028.44409-3.58661.34937-5.38757-.10913-2.07306-.33081-4.13623-.78809-6.17554-.74194-3.30969-2.04688-6.39404-3.63892-9.36279-.61646-1.14978-1.30371-2.25568-2.04541-3.3255-3.38989-1.84015-7.10815-3.1474-11.03955-3.83472.17285.12976.37891.22308.53735.34088,1.7832,1.3252,3.34448,2.89081,4.82886,4.5155,1.90137,2.08124,3.52148,4.37958,4.87646,6.86963,1.54126,2.83221,2.59961,5.82709,3.24146,8.96802.43799,2.14404.5376,4.33673.37793,6.51129-.31714,4.32391-1.64771,8.29303-4.3772,11.74548-1.5874,2.00775-3.48315,3.6178-5.77637,4.74609-2.06787,1.01733-4.28027,1.38959-6.56226,1.19775-2.18433-.18359-4.07544-1.07452-5.6228-2.64856-1.16113-1.18085-1.95117-2.5816-2.01123-4.23651-.05078-1.40259.85327-3.59937,2.52222-3.84961-1.17798.5556-1.71753,1.52051-1.94897,2.75635-.23633,1.26178.13086,2.36322.76562,3.38403,1.31396,2.11279,3.31104,3.0813,5.74146,3.36487,3.12842.36499,5.77637-.73004,8.18823-2.55927,1.80444-1.36841,3.23486-3.08551,4.2373-5.11169.93848-1.89673,1.58008-3.90039,1.85205-6.01544.14551-1.13202.28296-2.26202.23901-3.4032-.11133-2.89471-.69507-5.69171-1.74976-8.3941-1.09033-2.79504-2.63013-5.3324-4.48315-7.67273-1.78174-2.25006-3.87939-4.18591-6.22144-5.85663-1.97998-1.41241-4.07666-2.62384-6.28857-3.62659-1.03955-.47131-2.1084-.87878-3.17236-1.29602-4.03882.49731-7.875,1.64703-11.39282,3.35504.41284.00494.82568.01263,1.23828.02039,1.70996.03217,3.40796.26654,5.09766.57263,2.42871.43988,4.78223,1.0943,7.07227,2.02399,2.58765,1.05042,4.98511,2.4057,7.198,4.10089,1.25562.96179,2.45898,1.98376,3.52222,3.15283,2.63208,2.89465,4.60229,6.15674,5.68848,9.95361.66211,2.31378.91504,4.65692.69824,7.01532-.27808,3.02667-1.28857,5.82068-3.21143,8.24786-1.35645,1.71246-3.02075,2.9809-5.07397,3.72034-2.71436.97754-6.09619.71326-8.19458-1.72858-1.03516-1.20465-1.61133-3.11151-.62183-4.62109.10034-.15332.17383-.30353.45703-.43549-.39355.61658-.65381,1.17377-.69238,1.81683-.09521,1.59558,1.22974,3.63574,3.08105,4.2085,2.84131.87909,5.43945.38666,7.78003-1.46838,2.52344-2.00006,3.86353-4.70337,4.33423-7.78278.72705-4.75629-.54126-9.08307-3.22974-13.04364-.79395-1.16962-1.6814-2.26453-2.67505-3.23932-2.33789-2.2934-5.02197-4.08984-8.05981-5.388-2.22144-.94928-4.51001-1.62927-6.86548-2.06781-2.2522-.41925-4.54443-.45563-6.83691-.41785-2.46802.04071-4.88672.39636-7.28467.95233-.83789.19421-1.66431.41821-2.48242.66486-2.89404,2.72308-5.34351,5.91064-7.22559,9.44904,1.03174-.73474,2.09326-1.42755,3.19092-2.06635,3.16772-1.84363,6.53198-3.22754,10.14453-3.99005,1.698-.35834,3.39233-.62134,5.12549-.75269,3.32178-.25171,6.53467.23358,9.70532,1.15387,2.68726.77991,5.1626,2.00836,7.39771,3.6745,2.1748,1.62109,3.91797,3.63446,5.24756,6.01947,1.01123,1.81445,1.77832,3.72284,1.95483,5.76953.27905,3.23553-.16431,6.34106-2.35181,8.97424-1.17822,1.41864-2.60425,2.43823-4.40186,2.86884-1.7583.42114-3.38452.04987-4.81885-1.04425-.94604-.72162-1.3894-2.26294-1.00366-3.28027.12109.46478-.00635.93903.1084,1.41895.30518,1.27405,1.99487,2.37683,3.44702,2.48621,3.01367.22699,5.81812-2.03943,6.91724-4.77032.67847-1.68628.90674-3.44427.73804-5.22327-.24902-2.62494-1.25049-4.98413-2.81763-7.11145-1.91113-2.59448-4.41382-4.4444-7.32471-5.74396-1.91211-.8537-3.92432-1.40411-6.01782-1.66858-1.38721-.17523-2.77246-.28656-4.16504-.23041-3.104.12506-6.11914.72449-9.01416,1.85431-2.51465.98132-4.90381,2.21356-7.10205,3.78973-1.37598.98676-2.68042,2.0575-3.94238,3.1936-1.74902,1.57483-3.23608,3.3656-4.66846,5.20837-.38574,2.12445-.59814,4.30939-.59814,6.5451,0,1.84052.13965,3.64825.40308,5.41541.12231-.38953.20874-.79248.35156-1.17432,1.43237-3.83032,3.32812-7.39594,5.90869-10.58746.92676-1.14624,1.85889-2.28766,2.93799-3.29309,1.9646-1.83038,4.09399-3.4303,6.46021-4.73108,2.54492-1.39911,5.25342-2.31494,8.09033-2.7981,1.72754-.29425,3.48584-.36481,5.26855-.19818,2.62451.2453,5.0791.93762,7.39355,2.1626,2.43213,1.28717,4.3269,3.13855,5.74756,5.48975,1.17334,1.94214,1.71997,4.03455,1.59863,6.29932-.16406,3.05933-1.94897,5.7085-4.64795,6.60059-1.42432.47076-2.76416.28119-3.96753-.90045.48486.03589.69922.36835,1.02466.48987,1.47461.55035,2.80127.20734,4.01392-.66205,1.79956-1.29022,2.50073-3.14575,2.56787-5.28473.11353-3.6181-1.58447-6.34174-4.27319-8.5733-2.09741-1.74097-4.53247-2.6698-7.20605-3.08624-1.81885-.28333-3.61377-.2627-5.43677-.00696-4.01489.56305-7.5332,2.21844-10.70337,4.67554-2.96411,2.29742-5.33789,5.11493-7.20874,8.35156-1.94482,3.36462-3.22314,6.97443-3.93066,10.79523-.34253,1.84979-.57129,3.70209-.64526,5.58472-.01831.45941-.05078.92047-.07373,1.38147,1.74072,3.56738,4.04785,6.80621,6.80298,9.60352-.67896-2.12231-1.18311-4.28766-1.51318-6.48895-.15234-1.01465-.3457-2.04596-.27515-3.08466.04297-.63055-.15283-1.23633-.13159-1.85944.12207-3.60999.50708-7.1759,1.75122-10.60284,1.08618-2.99146,2.56177-5.7561,4.55029-8.26086,2.03687-2.56573,4.46069-4.64117,7.39307-6.09601,1.78809-.88727,3.68823-1.42242,5.67383-1.74432,2.87427-.46588,5.59106.01495,8.15942,1.22858,2.84326,1.34338,5.01929,3.38477,5.74536,6.59247.41724,1.8432.31006,3.67261-.83105,5.26398-.8479,1.18274-1.96167,2.00897-3.5498,1.89252-.25366-.01855-.48291-.05768-.77319-.22949.23779-.01233.40771-.04395.57227-.02612,1.92285.20758,3.26074-1.24158,3.74951-2.64984.88501-2.55035.18848-4.80042-1.47534-6.81586-1.51123-1.83057-3.49121-2.87665-5.77979-3.39911-1.82251-.41602-3.6521-.39569-5.4751-.0484-2.65137.50513-5.03271,1.65448-7.12207,3.32538-2.09619,1.67615-3.85767,3.6651-5.21313,6.01617-1.36719,2.3717-2.24585,4.91486-2.81274,7.56079-.5542,2.58539-.698,5.23151-.51709,7.86389.26147,3.8045,1.11816,7.47974,2.66455,10.99377,1.10742,2.51654,2.43579,4.89343,3.98462,7.13855,3.43042,1.83765,7.19019,3.13739,11.16675,3.79736-.16064-.11884-.35718-.19946-.50391-.30725-1.85254-1.36035-3.52734-2.92053-5.06006-4.61267-2.31226-2.5528-4.26733-5.36847-5.7688-8.48199-1.23389-2.55865-2.09961-5.2403-2.58325-8.03235-.1897-1.09448-.24609-2.21472-.29492-3.3349-.12695-2.90771.21289-5.73956,1.15259-8.48846.88623-2.59302,2.25122-4.90594,4.09473-6.95795,1.93433-2.15265,4.22241-3.7063,7.00903-4.50421,1.45703-.41711,2.92236-.52795,4.45825-.40753,2.42065.18988,4.33374,1.24347,5.91968,2.96924,1.60767,1.74969,2.32349,4.09833.97168,6.38477-.54883.92828-1.25244,1.45221-2.10034,1.43738,2.55664-.94281,2.68628-3.48175,1.95972-5.34418-.80615-2.06696-2.43262-3.32544-4.55957-3.90363-3.69043-1.00317-6.94189-.04767-9.88843,2.25623-1.79175,1.40118-3.18213,3.13556-4.19336,5.14685-.89307,1.77655-1.47412,3.66882-1.79761,5.64624-.25391,1.55151-.31226,3.10834-.2168,4.65845.16748,2.71497.78101,5.34198,1.84692,7.85858.91675,2.16406,2.04077,4.20471,3.46875,6.07605,1.28345,1.68231,2.67383,3.25488,4.26685,4.6665,1.50195,1.33093,3.07715,2.54584,4.75684,3.63531,2.47827,1.60736,5.12842,2.85211,7.91455,3.81012,4.00903-.53351,7.81152-1.71509,11.2981-3.44275-1.03003-.00409-2.05591-.05438-3.07739-.14557-3.87988-.34631-7.64307-1.23431-11.23584-2.78809-2.77588-1.20056-5.31494-2.76453-7.6228-4.71704-3.00928-2.54572-5.44458-5.53772-7.08032-9.13086-.84082-1.84717-1.43848-3.78027-1.67139-5.81586-.12036-1.04932-.29565-2.09637-.23438-3.15192.24951-4.30212,1.59033-8.15588,4.90601-11.08447,1.53955-1.35986,3.33984-2.24652,5.45337-2.4986,1.85254-.22089,3.50586.1297,5.04883,1.138,1.31152.85724,2.0896,2.06354,2.30908,3.60107.09302.65051-.03223,1.29694-.4519,1.85809.36157-1.7309.03638-3.2431-1.35181-4.42737-.99927-.85254-2.15137-1.31268-3.47119-1.3938-2.77637-.17047-5.06348.90527-6.91113,2.86133-1.82861,1.93579-2.89258,4.27185-3.29053,6.93756-.53491,3.58307.13843,6.92548,1.64014,10.17737,1.2915,2.79706,3.18506,5.13007,5.47876,7.11652,3.43945,2.979,7.448,4.90332,11.88208,5.94403,1.87207.43939,3.77026.6264,5.68579.79358,1.61499.14093,3.20898.05786,4.79468-.06677,2.83911-.22314,5.60938-.77509,8.30762-1.62384,2.86719-2.76086,5.28076-5.98547,7.12354-9.55573-.64697.47272-1.30371.93304-1.9873,1.35999-3.2583,2.03461-6.70166,3.61304-10.42725,4.58704-1.93701.50635-3.88965.8313-5.88379,1.01526-1.25537.11578-2.51025.15997-3.74951.07611-3.83032-.25928-7.48438-1.1972-10.8877-3.03864-2.32031-1.25549-4.32153-2.86798-6.03076-4.87836-1.53955-1.81067-2.69238-3.8194-3.43555-6.06738-.52124-1.57697-.82959-3.19958-.72168-4.85944.2019-3.10291,1.13306-5.90442,3.64941-7.95172,1.21143-.9856,2.5542-1.69672,4.16211-1.82605,1.86377-.14996,3.36523.49176,4.50146,1.95935.52295.67511.56812,1.47614.41724,2.2981-.02271-.31085-.00757-.63-.07397-.93121-.43384-1.96454-2.64941-3.08276-4.58545-2.79132-1.64673.24792-3.08936,1.00763-4.23242,2.23596-1.23535,1.32751-1.92871,2.93274-2.21045,4.71191-.46826,2.95685.07471,5.74091,1.51099,8.35388,1.09644,1.9942,2.53882,3.68054,4.35913,5.07867,1.98267,1.52271,4.14844,2.64014,6.53076,3.362,1.4375.43561,2.90405.69763,4.40015.87042,1.48438.17151,2.97217.17633,4.44043.07532,2.60498-.1792,5.13892-.75385,7.60669-1.66693,2.46338-.91162,4.76367-2.1037,6.93579-3.55817,1.50952-1.01086,2.90015-2.16821,4.26929-3.36609,1.87915-1.64453,3.42725-3.56433,4.94922-5.51227.34741-2.0202.53857-4.09375.53857-6.21307,0-1.91571-.1499-3.7962-.43481-5.63202-.20215.5423-.34326,1.10864-.55029,1.64819Z"/>
      </g>
    </g>
  </g>
</svg>