<?xml version="1.0" encoding="UTF-8"?>
<svg id="Layer_2" preserveAspectRatio="none" data-name="Layer 2" xmlns="http://www.w3.org/2000/svg" viewBox="0 0 792 611.98288">
  <defs>
    <style>
      .cls-1 {
        fill: #cf9bd1;
      }

      .cls-2 {
        fill: #322a3d;
      }
    </style>
  </defs>
  <g id="Video_Feed_Web" data-name="Video Feed Web">
    <g>
      <rect class="cls-1" x="0" y=".08313" width="792" height="611.89975"/>
      <g>
        <path class="cls-2" d="m0,197.93682v-126.99187c15.19845-3.59693,30.70751-4.161,46.06725-4.60519,39.85816-1.1527,79.78428,1.25897,119.57087-3.81146,12.55257-1.59968,24.98214-3.75989,37.13652-7.6094,17.52351-5.55007,35.19955-10.04078,53.40283-10.74165,17.79105-.68499,35.46446.78616,53.17586,3.34436,17.83105,2.57548,35.56077,5.46287,53.07302,10.08636,16.63332,4.39148,32.17056,11.84277,46.1541,23.20975,14.45266,11.74831,27.73474,25.24155,41.54026,37.95467,17.88804,16.4726,32.57522,36.36986,47.11789,56.42556,9.09543,12.54349,19.06428,23.76343,30.14663,33.89804,14.99503,13.71273,32.11941,23.30373,48.33863,34.64541,17.50514,12.24094,35.22499,24.16991,49.00118,42.16672,6.03368,7.88218,10.58519,16.65473,11.13222,27.67334.86292,17.38131-7.26528,29.51563-17.81485,39.61589-18.40179,17.61799-37.58845,34.09448-55.69237,52.19141-14.96069,14.95492-26.86323,32.44431-36.03401,52.39066-10.05031,21.85932-17.47828,45.08364-24.47031,68.46871-7.78342,26.03185-20.8323,47.51839-39.87029,64.41501-9.07393,8.05331-19.05939,14.15585-28.58921,21.21834h-137.0808c1.26917-2.20123,3.20681-1.09877,4.80734-1.12585,5.05873-.08559,10.11887-.83695,15.05487-1.59548,13.9401-2.1422,27.97699-2.76752,41.93665-4.48712,10.50249-1.29374,21.05795-1.60276,31.54669-3.59059,29.97683-5.68124,53.29634-24.29619,72.49913-50.22323,17.72827-23.93611,28.92233-52.29828,38.19292-81.72626,11.17057-35.45914,27.91427-66.88094,50.54734-94.16245,8.39241-10.11608,16.63713-20.53414,22.95268-32.62936,7.992-15.30593,11.63517-31.26338,2.9245-47.86777-5.84866-11.14884-13.75519-20.52512-22.32791-28.73258-17.41994-16.67781-36.99823-30.00422-54.9151-45.95147-7.92978-7.05808-15.45914-14.82608-21.53385-23.92243-8.0769-12.09434-16.44394-23.8956-25.54973-34.87914-10.05741-12.13142-20.13213-24.27913-31.17943-35.31233-11.57572-11.56098-23.92986-21.71997-37.2643-30.2565-24.12655-15.44563-50.93087-20.28153-77.55818-25.70165-15.92775-3.24207-32.02859-2.48292-48.0883-2.44677-9.73822.02187-19.37858,1.57527-28.72906,4.50294-26.30962,8.23775-52.92451,14.69353-79.95824,18.56368-17.18749,2.46056-34.5055,3.48671-51.7103,6.05332-20.75404,3.09614-41.35445,6.4604-60.39453,17.2803-7.60582,4.32217-15.4082,8.72252-20.56251,16.79549-10.08406,15.79424-8.0111,30.09396.69875,48.19966,8.95506,18.61555,21.77761,34.02482,32.4402,51.22932,7.42195,11.97554,14.16111,24.39539,16.52111,39.37522,1.47377,9.35456,2.15083,18.50067.92626,28.02851-1.60545,12.4918-1.88368,25.21521-3.54692,37.69345-1.90395,14.28392-.35095,27.98362,3.51545,41.43623,4.34311,15.11163,11.80986,28.38874,19.51351,41.3648,16.67679,28.09027,27.11856,58.7029,28.83143,92.90234.97749,19.51513,1.39158,39.05706,3.15542,58.52802,1.36056,15.01947,3.75287,29.55565,10.64823,42.6577h-25.30722c.17512-22.29062-.18194-44.58122.98058-66.86688.58117-11.14062.03334-22.35617.11913-33.53656.0977-12.73613-2.04483-25.00138-5.1431-37.15903-7.22256-28.34176-21.0322-52.41612-36.80777-74.99477-10.96192-15.68936-16.16436-32.97052-16.18097-53.04064-.01706-20.61432,4.26743-40.8234,3.40353-61.51618-.55002-13.17408-3.4742-25.24923-9.6699-36.13558-11.16156-19.61196-26.81105-34.4285-41.0938-50.69502Z"/>
        <path class="cls-2" d="m0,12.33331V.12255h80.13954c.18478.31813.31523.83576.56212.92591,21.4571,7.8375,43.49904,12.26483,65.90159,13.59207,14.23441.84329,28.58551.97524,42.7127-2.29615,13.71786-3.17667,27.24342-7.23661,40.558-12.22182h112.82804c9.37912,2.04734,18.78213,3.95918,28.13193,6.17264,15.33683,3.63084,30.70436,7.39342,45.03988,14.88566,21.29122,11.12748,41.04083,25.5223,60.43373,40.45223,17.79919,13.703,34.02586,29.5692,48.40522,48.15554,8.70819,11.25601,16.59591,23.23718,25.10948,34.64441,11.93277,15.98868,24.98116,30.19967,41.30044,39.94238,16.10963,9.61757,32.898,17.59168,49.17925,26.77192,17.08007,9.63065,33.75421,20.22556,50.62128,30.36442,11.09773,6.67094,21.36012,14.84191,30.51937,24.60307,17.40866,18.55269,27.02978,41.10493,26.26536,69.25295-.61752,22.73868-8.46612,40.28247-24.65787,53.1499-19.70886,15.66242-41.92592,24.82265-64.11626,34.2234-19.05574,8.07276-38.40803,15.36907-56.03661,27.44722-13.56482,9.29387-25.62402,20.35335-34.87146,35.39332-13.83374,22.49899-19.66791,48.49078-24.99518,74.74209-3.74763,18.46741-7.10707,37.09926-18.96011,51.55778h-43.23317c16.31159-14.37711,29.17768-31.88467,36.143-54.50339,6.76036-21.95328,12.83377-44.19908,19.92675-66.00327,5.25244-16.14622,12.65149-30.93145,22.96293-43.8373,16.12165-20.1779,36.33576-33.24409,56.98825-45.54521,22.26684-13.2626,45.08532-25.29147,64.57661-44.05004,9.62787-9.26595,15.71203-20.55145,15.47268-35.15331-.25424-15.51019-7.63758-27.55389-16.43031-38.3059-15.18745-18.57158-33.90244-31.73902-53.11296-43.63553-19.79616-12.25931-40.52666-22.44472-60.20663-35.05856-18.20212-11.66659-33.36167-27.37258-46.66019-45.66837-12.19988-16.78428-23.88633-34.04956-38.49669-48.32498-14.29024-13.96274-29.1837-26.99819-44.17414-39.88458-11.49485-9.88148-23.5457-18.77162-36.7445-25.51045-15.25142-7.78682-31.52938-11.17589-47.53693-15.75645-15.45493-4.42249-31.20395-7.83239-47.02299-8.18077-13.36977-.29443-26.69118-1.82219-40.21873-.90731-16.55641,1.11979-32.75746,3.54439-48.67262,8.32312-24.01076,7.20959-48.06864,12.96577-73.09989,10.56405-9.56924-.91815-19.18032-.24751-28.81148-.94707-18.20147-1.32214-36.21881-3.73068-54.08144-7.71557C40.68099,27.10539,20.32824,19.74406,0,12.33331Z"/>
        <path class="cls-2" d="m791.90522,317.60223c-4.25706-14.01912-8.44594-27.92201-16.06861-40.31312-10.2271-16.62478-22.58121-30.55279-36.55928-42.7065-18.93245-16.46146-40.46993-27.28602-61.93141-38.33521-23.64348-12.17256-47.16666-24.73707-68.20811-42.48623-12.07206-10.18317-21.31463-23.60054-30.15329-37.372-11.24444-17.51987-22.39109-35.07399-35.01114-51.39966-15.44191-19.97615-32.98088-36.60991-53.35993-49.16671-7.89268-4.86314-16.19262-8.83882-24.29546-13.24719-1.21067-.65872-2.63948-.95262-3.40668-2.45307h134.97186c6.71494,18.09505,13.34707,36.23205,20.17284,54.27087,4.83617,12.78075,9.84905,25.47456,14.93952,38.12273,4.91329,12.20804,10.65566,23.74751,19.06569,33.38301,10.98022,12.58005,23.99009,21.42711,37.63034,29.42618,19.24739,11.2872,38.98186,21.49832,57.50802,34.39981,16.02928,11.16266,30.8589,24.19282,44.70563,38.73856v89.13853Z"/>
        <path class="cls-2" d="m557.8134,611.88148c3.27857-11.37713,4.15586-23.3386,6.31266-34.99026,3.7982-20.51888,8.07975-40.7868,17.9251-58.82706,7.46843-13.6849,17.7208-23.96401,29.44242-32.42488,23.61888-17.04851,50.33585-24.37504,76.78768-32.39334,22.20837-6.732,43.91442-15.18599,64.22207-27.49202,19.73797-11.96081,34.28677-29.57028,38.63381-56.16112.04597-.2812.50296-.47227.76807-.70539,0,35.4112,0,70.82239,0,106.23359-20.74978,10.59676-42.70345,16.24898-64.90161,20.60146-22.38392,4.3889-44.96234,7.41261-66.88539,14.70981-16.14263,5.37315-30.98393,13.54016-43.41701,26.65723-11.21807,11.83519-18.36438,26.80766-23.11058,43.47078-2.91948,10.2499-4.34435,20.83544-6.25213,31.3212h-29.52509Z"/>
        <path class="cls-2" d="m791.90523,168.631c-8.02572-8.29048-16.05323-16.57861-24.07659-24.87215-6.60282-6.82521-13.47577-13.33655-19.74265-20.5533-12.48149-14.3732-20.20349-31.43036-21.6673-52.19681-.83289-11.8159-1.18972-23.68446-2.22062-35.43136-1.03761-11.82351.15624-23.75381-1.88771-35.45483,21.91437,0,43.82972.11995,65.7421-.12171,3.52224-.03883,3.92511,1.251,3.91895,4.79718-.09487,54.61083-.06618,109.22192-.06617,163.83297Z"/>
        <path class="cls-2" d="m621.08146,611.88148c6.74138-18.87368,18.11921-33.00653,33.42157-42.80418,10.30022-6.59491,21.61153-10.18495,33.01246-13.35111,19.09094-5.30177,38.36324-4.32953,57.6728-2.46045.34948.03383.70352.04825,1.05337.02672,15.24749-.93824,30.42238,1.82824,45.66356,1.19847,0,17.7056-.113,35.41296.09295,53.11534.04247,3.65056-.63848,4.38445-3.78378,4.37656-55.71078-.13986-111.42189-.10134-167.13294-.10134Z"/>
        <path class="cls-2" d="m89.62975,611.88148c-6.67827,0-13.35661,0-20.03489,0,3.4054-13.95404,7.23666-27.79113,10.12319-41.88764,5.25676-25.67123,10.66439-51.22835,8.02429-78.21704-2.63668-26.95355-14.60751-47.5962-30.61123-65.62907-10.08476-11.36348-21.51599-21.12728-31.26847-32.94914-5.4158-6.56496-9.25195-14.2915-11.2285-23.27182-1.91264-8.68962-1.86694-17.33161-.92697-26.11888,1.0842-10.13653,1.99051-20.2994,2.90712-30.45892,1.26126-13.97936,2.69197-27.95338-1.81333-41.63206-3.20369-9.72672-8.75361-17.51212-14.80097-24.93707v-26.86367c.77495.43562,1.64941.72531,2.31006,1.32877,10.2985,9.40692,19.6031,20.00786,27.02833,32.53652,6.82283,11.51235,10.18516,24.82658,9.40287,38.52936-1.15519,20.23666-4.10897,40.30733-4.06489,60.70203.02619,12.10228,3.08482,22.88149,8.83928,32.64943,7.46198,12.66642,17.16355,23.17765,25.76669,34.75029,5.19414,6.98701,10.29573,14.05649,14.54057,21.85402,8.48208,15.58084,13.74193,32.35804,15.50642,50.88321,1.56497,16.43011.93096,32.72074-.46886,48.95316-1.36861,15.87085-3.99892,31.59689-6.10953,47.38038-.99931,7.4734-2.0783,14.93253-3.12118,22.39813Z"/>
        <path class="cls-2" d="m0,394.53c13.62428,12.95459,29.0014,23.03115,43.0708,35.28763,14.81815,12.90875,26.61778,28.17204,31.67432,49.24697,3.11481,12.98212,2.74867,26.22421,1.38508,39.53185-3.32314,32.43132-15.23006,61.50319-26.13688,90.98476-.26201.70842-.29399,1.53096-.43333,2.30026-9.84168,0-19.68342,0-29.52509,0,.74181-3.57279,2.76881-6.35888,4.4365-9.31645,16.03745-28.44277,31.94457-56.87303,36.11925-91.65778,1.89693-15.80555-.558-30.24747-7.81712-43.68519-7.69786-14.24989-19.24095-23.42226-31.68005-31.05615-6.79856-4.17229-13.30384-9.35883-21.09347-11.10902v-30.52689Z"/>
        <path class="cls-2" d="m0,447.03626c13.2649,6.03944,25.82686,13.1713,34.53086,27.11813,7.87472,12.6181,9.24378,26.52635,6.06107,41.05776-4.26897,19.49088-13.05689,36.26038-24.22289,51.56536-5.08035,6.96346-10.46603,13.47738-16.36903,19.46138v-54.94841c1.24935-2.05446,2.64685-4.01023,3.72398-6.17939,6.89716-13.89069,7.34433-32.52561-3.72398-41.44257v-36.63227Z"/>
        <path class="cls-2" d="m169.76929,611.88148c14.21163-7.05211,28.71313-9.47287,43.78023-3.8888,3.9856,1.47709,8.06838,2.6021,12.10656,3.8888-18.62895,0-37.25784,0-55.88679,0Z"/>
        <path class="cls-2" d="m273.65335,88.14125c31.31043-1.05775,59.78717,6.04203,87.17855,18.56797,14.47113,6.61754,27.54282,16.51038,39.68767,28.01793,10.03627,9.50966,19.59161,19.59601,28.28415,30.65363,11.80619,15.01843,23.49676,30.16897,34.65703,45.86893,9.42263,13.25554,19.9926,25.2404,31.94444,35.57661,13.63391,11.79083,27.38469,23.47888,38.92364,38.14699,10.87172,13.81994,13.13826,29.855,9.08193,47.56199-4.09285,17.86641-12.64079,33.12758-20.97782,48.50117-9.77317,18.02177-17.25532,37.38337-24.67804,56.74436-13.16543,34.33984-25.50989,69.28782-46.38287,98.58868-17.00574,23.87215-38.66705,39.95193-65.26865,46.18186-8.84713,2.07195-17.83382,2.63161-26.77919,3.70695-11.52349,1.38526-22.99279,3.40602-34.52664,4.63352-7.94902.84598-15.90207,1.97372-23.84697,2.46869-16.89903,1.05282-33.7466,3.3325-50.73454,2.7067-11.85665-.43677-23.34947-3.45466-34.72612-6.50845-14.03618-3.76767-27.64869-2.77507-41.49289.3631-22.96531,5.20571-33.1376-2.61874-39.97947-30.51043-4.30398-17.54579-5.06632-35.84922-7.64122-53.76207-2.50964-17.45927-6.6367-34.55895-12.3824-51.08411-7.38391-21.23642-18.50532-40.24765-26.71676-60.96698-3.88648-9.80641-6.2609-20.05317-7.31698-30.99406-1.80451-18.69539.45039-36.89606,3.42908-54.98724,3.95026-23.99303,1.71924-46.42184-8.72575-67.9433-6.41936-13.2268-12.20721-26.89724-16.8832-41.16785-5.28334-16.12418-5.86419-31.83587,3.60098-45.95456,6.71251-10.01269,16.58869-15.64205,26.51223-20.41102,20.64978-9.92362,42.43061-14.69673,64.44681-18.56938,24.16452-4.25059,47.94565-10.43608,71.43748-18.59357,16.59589-5.76288,33.98168-8.11042,49.87554-6.83606Zm-16.21872,489.67997c7.06778-.34157,12.62928-.66346,18.18455-1.06086,16.9928-1.21562,33.89682-3.38391,50.84711-5.02132,16.73407-1.61653,33.32257-4.0585,49.60899-8.76087,17.79186-5.13702,34.23017-13.66316,48.15305-27.79886,21.65009-21.98103,35.24444-50.49889,46.73295-80.26703,10.87378-28.17544,20.39012-57.0609,30.23608-85.75711,3.87261-11.28673,7.26192-22.83502,8.13438-35.10315,1.69999-23.90457-9.5594-40.96773-23.30654-55.89397-11.95496-12.98034-24.79653-24.94795-34.99083-39.87631-17.18273-25.1621-34.82237-49.81782-54.95093-71.92325-11.96818-13.14363-25.32991-24.11326-39.83972-33.24484-15.93058-10.02577-33.0687-15.86534-50.80051-19.24886-8.87422-1.69336-18.07469-3.14265-26.93961-2.23634-7.76733.7941-15.57567.44691-23.37061,1.74658-10.2503,1.70905-20.51707,3.24937-30.61805,5.85813-21.47583,5.54645-42.40171,13.5503-63.91584,19.03075-20.38989,5.19416-40.58825,11.67426-57.50659,26.83169-10.98902,9.84518-17.75707,22.88257-16.46035,39.47378.97595,12.48763,4.51721,24.46951,7.7814,36.46104,3.48411,12.79957,5.90808,25.8525,5.81141,39.48772-.14893,20.98974-5.29744,41.17788-6.82373,61.96829-1.10621,15.06671-.56752,29.64837,3.35397,43.99517,5.22658,19.12117,13.50644,36.7002,20.89261,54.73531,5.97959,14.60081,10.74078,29.74735,14.16632,45.44627,3.87052,17.7381,6.4693,35.92881,12.7571,52.83312,2.74256,7.37314,5.09007,15.03523,11.09798,20.49639,6.41942,5.8353,13.50959,7.72486,21.21743,7.92977,12.52972.33311,25.28257-1.61661,37.45671,2.78961,14.58981,5.28055,29.47876,6.82664,43.09129,7.10915Z"/>
        <path class="cls-2" d="m254.35512,560.48791c-16.02625,1.97646-33.17216-3.61146-50.46262-7.69845-8.43349-1.99344-16.9305-3.90361-25.39662-5.25402-17.81918-2.84232-26.80397-15.89012-32.99659-33.66414-7.14752-20.51519-10.95774-42.35232-18.91342-62.52858-6.07896-15.41643-11.94295-30.93143-17.35997-46.6951-6.59943-19.20466-8.24041-39.14565-6.68568-59.2795,1.13041-14.63843,4.42459-29.04458,6.60059-43.58506,2.52785-16.89217,3.15909-33.66911,1.0472-50.90384-2.25246-18.38183-4.01887-37.2124,3.61489-55.04213,5.41052-12.63732,15.24615-19.40783,25.18771-25.79452,21.21775-13.63079,44.32748-20.49431,68.17889-24.68926,18.5689-3.26592,36.98257-7.79468,55.59257-10.6483,24.9786-3.83025,49.34721-.43491,72.83167,10.76315,15.75974,7.51468,28.84777,19.43406,41.66846,32.01798,19.37658,19.01868,34.54843,42.27382,50.19035,65.15051,9.7926,14.32189,19.50192,28.75639,30.49577,41.987,10.79989,12.99714,18.90933,28.16279,21.59081,46.26428,1.79444,12.11335.15424,24.2378-2.16055,36.1459-6.3065,32.4428-15.72653,63.56292-29.14196,93.05418-10.45982,22.9939-23.54577,43.63691-40.34204,60.85988-14.81313,15.18946-32.32403,23.97517-51.92001,27.45624-18.79329,3.33847-37.61342,6.29708-56.52527,8.63384-14.36526,1.77498-28.67323,3.96115-45.09416,3.44994Zm26.36983-395.64207c-2.77554-.21654-7.94317.43689-13.14953,1.22741-10.12708,1.53775-20.33326,2.37761-30.46005,3.91722-11.45543,1.74162-22.81831,4.37486-34.29652,5.8221-15.20064,1.91654-29.97188,5.21938-43.64707,13.54877-19.9581,12.15613-30.90477,30.88526-30.46404,57.36548.23665,14.21379.12409,28.54484-1.55911,42.43421-2.26063,18.65466-7.23292,36.85012-10.63278,55.34339-3.54538,19.28544-3.26181,38.41315,2.01413,57.47133,5.05538,18.26171,12.53242,35.37428,17.96572,53.44313,4.8103,15.99756,9.77751,31.9831,16.57318,47.01835,5.0084,11.08092,11.50788,20.78904,22.25201,25.34125,19.95469,8.45469,40.61219,13.43075,61.57521,17.01432,17.27151,2.95252,34.46901,1.01828,51.55188-1.47688,16.91441-2.47054,33.62586-6.77304,50.52759-9.39805,31.16935-4.84095,54.38959-23.67623,72.04407-52.96187,11.60056-19.24327,20.89759-39.99864,29.75129-61.01377,6.13061-14.55162,10.79951-29.87875,12.53043-45.95562,2.89541-26.89292-4.89384-50.48368-18.16215-72.16519-12.38375-20.2361-25.68041-39.668-38.51433-59.50676-12.2876-18.99423-26.46032-35.78954-43.15453-49.57188-21.00199-17.33884-44.02811-28.10662-72.7454-27.89693Z"/>
        <path class="cls-2" d="m262.85262,196.57231c26.09898.20063,46.39609,3.87224,65.0514,16.02185,8.03803,5.23496,15.15221,11.92822,22.02887,18.89451,18.79226,19.03716,33.46854,42.11537,47.33394,65.92594,7.31933,12.56915,15.05525,24.80832,21.32362,38.1953,9.72799,20.7755,10.45152,42.3024,4.9638,64.57876-6.57247,26.67967-15.77776,51.88504-30.09902,74.38934-14.44323,22.69595-32.75933,38.67944-56.63519,45.72397-15.66114,4.62077-31.24211,9.68265-47.17617,12.83532-6.96323,1.37773-13.96082,3.15852-21.11227,2.99349-6.1141-.14111-12.08342,1.70117-18.25193,1.30365-23.106-1.48903-45.37834-7.23056-66.81267-17.21714-16.37617-7.62994-26.15593-22.7443-32.34816-40.98196-6.91679-20.37184-12.70639-41.25339-19.43338-61.71613-7.69972-23.42162-7.1853-46.75375-1.55525-70.60391,4.53001-19.19022,10.6936-37.84999,13.89176-57.46686,1.97983-12.14398,3.11365-24.4245,5.50603-36.53024,4.17385-21.11986,16.0238-33.21599,32.70459-40.31793,14.65951-6.24143,30.02079-8.57332,45.39109-11.11079,13.39503-2.21145,26.67657-5.27714,35.22893-4.91717Zm-13.39043,28.24136c-10.87935.35539-28.70792,4.06289-46.18541,9.89329-17.84157,5.95189-29.56989,19.38156-36.09106,39.65493-4.09185,12.72076-7.03077,25.8086-10.76035,38.62872-4.55447,15.65543-11.27458,30.36979-14.82987,46.46872-3.92317,17.76483-5.67233,35.49798-.26169,53.27284,6.00224,19.71826,10.78384,39.94734,18.04276,59.13606,5.41084,14.30338,13.34059,25.99978,25.89508,33.06799,12.21848,6.87904,24.92995,10.99527,38.39275,13.31131,13.40475,2.30603,26.8106,3.40768,39.95563.5067,16.69021-3.68336,33.43439-7.28209,49.81275-12.89433,23.93151-8.20047,45.32904-20.44176,60.07508-44.98058,13.72124-22.83352,24.00191-46.72364,22.10817-75.86009-1.10274-16.96663-5.86168-32.41267-12.15698-47.27167-5.53447-13.0632-12.65641-25.16045-20.02378-36.99653-11.31188-18.17323-23.24411-35.82256-38.67162-49.53331-19.92184-17.705-42.6607-26.66158-75.30147-26.40405Z"/>
        <path class="cls-2" d="m365.76693,397.50039c1.24285,19.0679-3.60497,36.03138-12.73332,51.60437-9.77799,16.68123-23.67091,27.33226-39.19229,35.28484-14.00082,7.17348-28.41924,13.03388-43.47887,16.77722-15.32833,3.81014-30.65461,4.24152-46.14313,2.09071-11.18267-1.55289-22.01678-4.58442-32.31296-9.88668-12.58835-6.48267-21.62161-17.33772-27.30269-31.68813-5.30323-13.39605-10.45039-26.93114-13.74605-41.22497-5.97971-25.93491-4.24464-51.09834,5.50616-75.62874,8.52881-21.45627,17.64174-42.53372,28.69202-62.39245,5.81032-10.44182,14.78939-16.84926,24.28951-21.78671,12.77821-6.6412,26.41138-9.31055,40.42768-8.93854,21.49958.57059,41.19117,7.74326,58.31472,22.9305,25.87285,22.94726,43.95416,52.4079,53.67069,88.56697,3.00682,11.18955,4.85667,22.57805,4.00854,34.29161Zm-208.68883-2.93234c-.57158,6.1783.43964,13.7534,2.1852,21.11843,4.83907,20.41765,11.39911,39.60253,26.07877,53.88754,15.94741,15.51867,34.85999,19.80029,54.61511,19.91619,9.35377.0549,18.88195-1.75309,28.13448-4.52954,18.08263-5.42615,35.29992-13.47974,49.29588-27.82044,26.20079-26.84611,29.338-62.18425,18.03433-97.61963-6.55509-20.54925-17.07312-37.97032-31.00244-52.73793-18.19842-19.29365-38.80874-30.99106-64.25482-29.62387-22.97065,1.23423-39.72281,14.68835-53.5383,34.46345-6.5269,9.3424-11.34003,19.97399-16.54042,30.34724-7.97074,15.89908-13.35738,32.43106-13.00778,52.59856Z"/>
        <path class="cls-2" d="m234.70974,476.43556c-12.83034.13536-25.07778-2.63272-36.80674-8.72608-14.57172-7.57018-23.29695-21.48899-28.92977-37.72492-11.26904-32.48165-5.04972-62.17399,12.29474-89.81692,6.89053-10.98184,14.13968-21.26933,23.99551-28.87543,17.68808-13.6505,36.59699-18.10779,56.58045-8.47615,28.85878,13.90937,47.87347,38.77364,56.95178,73.34037,4.43821,16.89901,4.3704,34.19077-1.76172,50.6387-5.03089,13.49418-14.00806,23.49017-24.69114,31.01937-17.63839,12.43118-37.08896,17.96652-57.63312,18.62107Zm-12.38002-15.61814c27.3247-.38038,46.62792-7.58326,61.87651-26.07899,11.53581-13.99232,14.18762-30.08315,8.21846-46.41193-7.40036-20.24397-18.11871-38.03024-33.62805-51.13744-12.82648-10.83993-26.93983-16.43423-42.73709-9.08173-11.93452,5.55463-21.22296,15.17964-28.32389,27.39254-7.32953,12.60609-10.84749,26.81146-13.04962,41.83211-2.93325,20.00648,4.75006,40.9624,18.46367,52.17388,10.40238,8.50437,22.19878,11.74151,29.18,11.31157Z"/>
        <path class="cls-2" d="m222.31743,449.41141c-9.36973.77469-18.77363-1.1704-27.06231-8.7779-7.42787-6.8175-11.16645-16.0833-11.55384-26.29071-1.10158-29.0293,12.20355-53.78908,37.64477-63.87743,8.2574-3.27437,15.73875-2.42134,23.27398,2.52052,14.30965,9.38486,25.32792,22.19479,28.56363,41.2283,3.39127,19.94866.36379,30.27404-14.04857,43.05896-10.6204,9.42115-22.86828,12.71748-36.81765,12.13826Zm-27.2682-43.26969c-.00006,12.15434,6.26824,22.31038,15.89849,25.72975,11.46914,4.07228,22.32126,1.50285,32.46298-4.96246,7.46681-4.76006,12.41165-13.12407,11.41234-22.60986-1.99338-18.92187-21.16031-33.82118-37.30704-29.22823-11.29859,3.21389-24.25984,16.92487-22.46678,31.0708Z"/>
        <path class="cls-2" d="m199.32869,406.39103c-.6118-12.80654,6.56912-18.5601,14.94456-22.80622,12.23128-6.20092,28.15636-1.2338,31.78984,15.50788,1.68931,7.78359-1.30637,12.97147-5.64833,18.06658-7.32135,8.59128-24.28223,11.13691-32.7618,5.37852-5.40125-3.66798-9.08925-8.5961-8.32427-16.14676Zm22.86581-19.22043c-8.31423.031-14.91038,5.93093-17.79067,14.39401-2.00454,5.8901.14989,9.85554,3.93804,12.12926,8.44398,5.06811,19.94298,5.75515,27.29375-4.34509,4.15499-5.70917,3.73241-13.93723-1.66608-17.86132-3.62126-2.63226-7.60486-4.83728-11.77504-4.31686Z"/>
        <path class="cls-2" d="m219.12918,412.81433c-6.83435-.01273-11.06554-3.64506-10.95729-9.40669.11952-6.36479,6.51828-12.43973,13.17196-12.50535,6.09711-.06013,12.84083,5.57561,12.71289,10.62427-.16643,6.57288-6.42264,11.30361-14.92757,11.28778Zm-6.68278-11.3245c-2.02141,5.07137.94152,6.70105,3.95207,7.5903,5.53055,1.63363,11.93394-1.96357,12.25214-6.94012.25493-3.98603-2.2132-5.82331-5.57766-6.42507.05348,3.01474,4.02479,4.73521,1.4701,7.97822-2.18572,2.77457-5.03511,3.4606-8.11079,2.93644-2.45371-.41814-3.80964-2.13649-3.98585-5.13979Z"/>
      </g>
    </g>
  </g>
</svg>